<?xml version="1.0" standalone="no"?>
<!DOCTYPE svg PUBLIC "-//W3C//DTD SVG 20010904//EN"
 "http://www.w3.org/TR/2001/REC-SVG-20010904/DTD/svg10.dtd">
<svg version="1.0" xmlns="http://www.w3.org/2000/svg"
 width="1024.000000pt" height="1024.000000pt" viewBox="0 0 1024.000000 1024.000000"
 preserveAspectRatio="xMidYMid meet">
<metadata>
Created by potrace 1.14, written by Peter Selinger 2001-2017
</metadata>
<g transform="translate(0.000000,1024.000000) scale(0.100000,-0.100000)"
fill="#000000" stroke="none">
<path d="M0 7600 l0 -2640 24 0 c43 0 117 -60 152 -124 53 -97 110 -330 169
-687 21 -131 43 -324 28 -251 -2 12 -9 19 -15 16 -7 -5 -7 -1 0 12 8 14 6 21
-6 32 -13 10 -14 15 -4 18 14 7 16 44 2 44 -5 0 -10 -4 -10 -10 0 -5 -9 -1
-20 10 -11 11 -20 23 -20 27 0 4 5 2 12 -5 7 -7 19 -12 27 -12 13 1 12 3 -2
11 -14 8 -17 18 -12 37 6 26 6 26 -10 7 -9 -11 -14 -14 -10 -7 3 6 -1 19 -10
28 -14 15 -14 17 2 29 14 10 15 16 5 28 -7 8 -10 22 -6 30 3 9 -3 23 -15 34
-22 18 -28 43 -11 43 6 0 10 -7 10 -15 0 -8 4 -15 9 -15 17 0 -11 68 -32 77
-19 9 -19 9 -1 27 18 18 18 19 -4 34 -22 15 -33 60 -10 46 7 -4 8 -3 4 4 -11
17 -24 15 -28 -5 -3 -16 -6 -15 -16 5 -12 20 -11 22 15 23 21 1 23 3 8 6 -26
7 -45 22 -45 37 0 6 5 4 10 -4 7 -11 10 -7 10 18 0 36 -2 38 -23 17 -13 -12
-15 -12 -20 5 -3 11 -2 18 3 15 15 -9 19 24 4 36 -9 8 -14 24 -12 39 3 20 0
27 -11 26 -11 -1 -17 10 -19 32 -2 21 1 32 10 32 7 1 -2 7 -20 15 -18 8 -35
21 -38 30 -3 8 -14 15 -23 15 -14 0 -14 2 -1 10 8 5 11 10 6 10 -6 0 -1 7 10
16 19 15 19 15 -2 9 -26 -7 -65 21 -46 33 11 8 11 10 -2 15 -14 6 -16 -216
-16 -2428 l0 -2435 5120 0 5120 0 0 5120 0 5120 -5120 0 -5120 0 0 -2640z
m6315 1240 c11 -1 466 -1 1010 -1 545 0 1028 -2 1075 -3 47 -2 97 -4 111 -5
15 0 29 -8 33 -16 5 -13 -4 -14 -62 -9 -58 6 -167 7 -367 3 -28 0 -55 0 -60 1
-6 2 -12 2 -15 1 -3 -1 -273 -4 -600 -5 -327 -2 -597 -4 -600 -6 -3 -1 -9 -1
-15 0 -5 2 -119 4 -252 6 -166 2 -243 -1 -243 -8 0 -7 -4 -7 -12 0 -9 6 -124
10 -326 9 -171 -1 -312 1 -312 5 0 8 -57 5 -65 -4 -3 -3 -51 -3 -108 -1 -208
8 -457 8 -457 0 0 -5 -4 -6 -8 -3 -5 3 -86 7 -180 10 -122 4 -172 2 -172 -5 0
-8 -5 -7 -15 1 -11 9 -22 10 -38 3 -12 -5 -33 -7 -46 -3 -14 3 -50 3 -80 -1
-34 -4 -69 -2 -89 4 -23 8 -40 8 -61 0 -18 -6 -46 -8 -70 -3 -22 4 -76 5 -118
3 -43 -3 -96 -4 -118 -3 -71 3 -856 3 -1000 1 -77 -2 -149 0 -159 5 -10 4 -32
2 -47 -3 -16 -6 -29 -8 -29 -5 0 6 -36 6 -105 2 -5 0 -48 1 -94 4 -47 3 -92 1
-102 -5 -10 -5 -20 -5 -23 0 -3 4 -61 7 -128 5 -144 -5 -378 -4 -463 1 -63 4
-307 7 -321 4 -5 -1 -25 -1 -44 0 -24 1 -31 4 -21 10 7 5 203 8 435 7 231 -1
464 0 516 3 77 5 3775 6 3845 1z m-3163 -520 c4 0 35 16 68 36 34 20 63 34 66
32 8 -9 -50 -87 -73 -97 -13 -6 -23 -17 -23 -26 0 -8 -6 -15 -12 -16 -14 -1
65 -21 155 -39 31 -6 57 -15 57 -19 0 -3 -29 -5 -65 -3 -44 3 -74 -1 -95 -11
-17 -9 -28 -12 -26 -8 3 4 -5 13 -17 20 -24 16 -30 25 53 -91 24 -35 36 -56
26 -48 -24 19 -149 148 -158 163 -5 9 -10 9 -20 -1 -8 -8 -50 -12 -137 -11
-172 1 -193 12 -55 29 60 8 117 14 127 14 25 0 21 11 -10 32 -38 25 -133 115
-133 126 0 11 87 -40 169 -99 24 -17 24 -17 12 5 -7 12 -10 26 -7 30 2 4 7 25
10 47 3 22 11 65 18 95 l11 55 26 -107 c14 -60 29 -108 33 -108z m2040 160
c137 -36 228 -88 328 -189 105 -106 160 -237 160 -382 0 -92 -3 -139 -11 -139
-10 0 -40 -80 -34 -90 3 -5 -1 -10 -10 -10 -9 0 -15 -5 -13 -12 2 -6 -4 -20
-14 -30 -10 -10 -16 -23 -13 -28 4 -6 -1 -10 -9 -10 -9 0 -16 -7 -16 -15 0 -8
-3 -15 -8 -15 -4 0 -19 -10 -33 -22 -33 -30 -65 -48 -84 -48 -12 0 -14 -4 -5
-19 7 -13 7 -22 0 -26 -5 -3 -10 -2 -10 3 0 6 -7 12 -14 15 -11 4 -13 1 -9
-10 5 -12 2 -14 -8 -9 -8 4 -5 0 5 -8 21 -17 14 -20 -18 -7 -13 5 -26 0 -44
-15 -13 -13 -29 -22 -36 -21 -6 1 -10 -7 -9 -18 1 -18 0 -18 -10 -4 -7 9 -25
20 -42 26 -18 6 -29 17 -29 26 1 9 -3 14 -8 11 -5 -3 -7 -12 -4 -19 7 -19 -33
-30 -48 -15 -8 10 -6 11 12 5 14 -4 22 -2 22 5 0 7 -13 10 -32 7 -22 -2 -33
-9 -33 -19 0 -9 -4 -20 -8 -24 -4 -4 -7 -3 -7 3 0 18 -81 56 -93 44 -8 -8 -5
-11 9 -11 23 0 77 -39 54 -40 -9 0 -26 7 -38 16 -12 8 -26 12 -32 9 -5 -3 -18
-1 -27 4 -12 7 -14 10 -4 11 11 0 11 3 1 15 -7 8 -26 14 -44 14 -30 -2 -30 -2
-3 -6 15 -2 27 -11 27 -19 0 -17 -12 -18 -28 -2 -9 9 -12 7 -12 -12 0 -19 -3
-21 -12 -12 -16 16 -21 15 -48 -8 -13 -11 -28 -20 -34 -20 -6 0 0 7 12 16 23
16 22 37 -2 28 -9 -3 -13 1 -13 12 2 14 -8 20 -37 25 -21 3 -41 12 -45 18 -5
7 -12 11 -17 10 -5 -1 -27 6 -48 15 -30 14 -36 20 -25 27 13 8 12 10 -12 13
-6 0 -16 9 -24 19 -7 10 -17 17 -21 16 -22 -4 -26 2 -11 14 12 8 14 16 7 27
-8 13 -10 12 -10 -2 0 -10 -7 -18 -16 -18 -11 0 -14 6 -9 21 5 14 4 19 -4 15
-7 -5 -9 -1 -5 8 4 9 1 16 -6 16 -7 0 -10 7 -6 15 5 14 -17 21 -47 16 -5 -1
-6 3 -2 8 3 6 13 8 23 5 14 -5 14 -2 -3 13 -22 19 -26 44 -10 55 6 5 3 8 -6 8
-25 0 -49 34 -53 72 -2 19 -6 40 -10 46 -3 6 -4 24 -2 39 3 15 7 49 10 75 21
176 168 364 352 450 126 59 281 73 416 38z m1825 -282 c7 -36 13 -43 33 -44
54 -2 56 -4 36 -19 -11 -8 -30 -15 -43 -15 -15 0 -23 -6 -23 -16 0 -13 -3 -14
-14 -5 -11 9 -19 5 -40 -21 l-27 -33 3 35 c3 32 1 35 -27 38 -47 5 -51 19 -9
31 22 6 44 11 51 11 7 0 18 18 24 40 7 22 16 40 20 40 4 0 12 -19 16 -42z
m-3912 -8 c-3 -5 -2 -10 3 -10 14 0 21 -48 12 -79 -7 -25 -7 -25 -18 14 -15
50 -15 85 -1 85 5 0 7 -4 4 -10z m3467 -143 c113 -53 174 -144 184 -275 5 -61
3 -70 -18 -93 -13 -14 -32 -37 -43 -51 -11 -14 -29 -30 -40 -36 -18 -10 -18
-11 -2 -12 10 0 15 -5 11 -11 -3 -6 -17 -8 -31 -4 -21 5 -23 4 -11 -9 7 -7 16
-12 21 -9 4 2 7 1 7 -4 0 -9 -77 -55 -84 -51 -2 2 -13 -6 -25 -16 -12 -11 -21
-15 -21 -10 0 5 -4 4 -8 -3 -13 -21 -163 -55 -212 -49 -81 12 -92 14 -103 25
-21 21 1 38 57 44 97 10 173 63 220 155 22 42 41 189 27 206 -6 7 -8 16 -4 19
3 4 0 7 -8 7 -10 1 -9 5 5 15 18 13 18 15 2 21 -10 4 -15 13 -11 22 4 12 3 13
-10 2 -12 -10 -15 -10 -15 1 0 12 -2 12 -9 0 -7 -11 -10 -11 -12 3 -5 24 -92
52 -149 48 -72 -4 -102 -4 -107 2 -9 8 15 33 54 57 95 59 219 61 335 6z
m-4117 -120 c7 -23 19 -35 43 -43 18 -5 29 -13 26 -17 -10 -10 -74 -9 -113 3
-24 7 -39 6 -48 -1 -7 -6 -13 -8 -13 -3 0 18 16 32 39 35 18 3 27 13 33 38 10
37 18 35 33 -12z m5510 -70 c132 -37 259 -122 333 -221 66 -90 127 -228 146
-333 5 -31 -6 -45 -19 -23 -3 6 -16 10 -28 10 -17 0 -19 -2 -7 -9 8 -6 19 -7
25 -5 5 3 0 -4 -13 -15 -13 -11 -21 -24 -19 -29 7 -9 -46 -72 -61 -72 -12 0
-24 -29 -16 -41 3 -5 -2 -12 -10 -15 -9 -3 -16 -10 -16 -15 0 -4 7 -6 15 -3
11 5 15 -1 15 -20 0 -20 -5 -26 -22 -26 -18 0 -20 -2 -8 -10 9 -5 19 -5 27 2
8 6 17 8 21 4 4 -4 -1 -14 -12 -21 -14 -11 -22 -11 -37 -2 -16 10 -21 9 -29
-3 -5 -8 -9 -19 -9 -25 0 -5 3 -4 6 3 5 14 33 17 33 3 0 -5 -8 -12 -17 -16
-17 -7 -16 -8 2 -16 15 -7 12 -8 -12 -3 -19 3 -34 1 -39 -7 -4 -8 -3 -9 4 -5
7 4 12 1 12 -8 0 -8 7 -21 15 -30 14 -14 14 -17 -5 -36 -11 -11 -25 -18 -30
-15 -4 3 -20 1 -34 -4 -31 -12 -32 -51 -1 -51 20 -1 20 -1 0 -16 -13 -10 -19
-24 -17 -42 3 -28 -34 -72 -61 -72 -8 0 -7 3 3 10 8 5 11 12 7 16 -4 4 -15 1
-24 -7 -36 -29 -86 -52 -81 -38 3 8 -1 20 -9 27 -15 15 -18 72 -4 72 5 0 5 15
1 34 -4 19 -5 37 -2 41 9 9 9 145 0 139 -4 -3 -8 8 -8 23 0 16 -7 39 -16 51
-9 13 -13 29 -10 37 3 8 1 15 -4 15 -12 0 -10 74 4 140 16 73 11 99 -22 111
-18 7 -28 7 -30 0 -2 -6 -14 -11 -27 -11 -14 0 -29 -9 -35 -19 -13 -25 -13
-81 0 -81 5 0 8 -14 6 -30 -3 -27 -20 -56 -51 -85 -19 -18 -68 -85 -61 -85 3
0 -3 -15 -14 -32 -11 -18 -23 -41 -26 -50 -4 -10 -10 -18 -15 -18 -5 0 -9 -7
-9 -15 0 -19 -26 -61 -59 -93 -25 -25 -65 -31 -126 -19 -16 3 -33 6 -37 6 -13
2 -29 70 -30 128 0 43 10 89 41 181 45 135 48 157 25 183 -27 30 -100 -8 -134
-72 -14 -25 -163 -143 -209 -165 -27 -13 -38 -14 -53 -5 -11 7 -28 9 -39 6
-14 -5 -29 3 -54 28 -44 44 -48 95 -10 132 27 28 49 31 85 10 38 -22 57 -18
101 22 44 39 73 88 64 103 -3 6 -2 10 2 10 5 0 10 8 11 18 2 27 9 56 15 72 4
8 8 26 10 40 6 46 68 154 115 203 129 132 398 204 577 154z m-3505 -117 c0 -5
-2 -10 -4 -10 -3 0 -8 5 -11 10 -3 6 -1 10 4 10 6 0 11 -4 11 -10z m-584 -136
c19 -9 31 -20 28 -26 -3 -5 -12 -1 -20 9 -11 14 -15 15 -22 5 -8 -11 -10 -11
-15 2 -4 9 -14 16 -24 16 -15 0 -16 -2 -3 -11 11 -8 6 -9 -22 -7 -21 2 -38 0
-38 -4 0 -4 -5 -8 -11 -8 -16 0 0 20 25 30 33 13 65 12 102 -6z m-1746 -14
c12 -8 11 -10 -7 -10 -13 0 -23 5 -23 10 0 13 11 13 30 0z m709 -115 c87 -19
147 -71 579 -503 475 -475 642 -648 642 -664 0 -6 30 -40 68 -76 37 -36 57
-60 46 -54 -12 6 -24 8 -28 5 -3 -3 -6 1 -6 11 0 10 -11 19 -31 23 -18 3 -26
9 -19 13 8 5 3 10 -13 14 -14 3 -42 24 -63 46 -21 22 -46 43 -56 46 -10 3 -18
11 -18 19 0 7 -10 16 -22 19 -13 3 -50 31 -83 61 -33 30 -66 55 -72 55 -7 0
-13 5 -13 11 0 11 -25 39 -35 39 -4 0 -16 10 -27 23 -11 12 -16 15 -13 7 4 -8
-5 -3 -21 12 -16 15 -38 36 -50 46 -22 20 -70 37 -93 33 -8 -1 -17 3 -21 10
-6 9 -19 8 -56 -4 -59 -19 -72 -13 -18 9 28 12 56 15 97 11 45 -4 60 -2 64 9
3 8 10 14 16 14 7 0 7 -4 -1 -12 -15 -15 -15 -28 -1 -28 5 0 8 4 5 9 -4 5 0
12 6 15 9 3 7 9 -7 20 -11 8 -25 19 -30 24 -6 5 -16 7 -23 4 -7 -2 -12 5 -12
16 0 12 -9 22 -22 26 -19 5 -21 8 -8 16 13 9 12 11 -5 9 -42 -3 -48 0 -35 16
10 13 9 15 -11 16 -13 0 -18 3 -11 6 21 8 13 24 -18 34 -16 6 -30 15 -30 21 0
5 5 6 10 3 6 -3 10 -4 10 -1 0 3 -14 13 -31 22 -25 12 -29 18 -18 25 11 7 9
10 -8 15 -11 3 -24 15 -26 26 -4 15 -11 19 -26 15 -16 -4 -23 1 -27 20 -6 21
-11 24 -35 21 -15 -3 -26 -1 -23 4 3 4 -3 8 -12 8 -13 0 -15 3 -7 11 19 19 3
39 -29 39 -26 0 -29 2 -18 15 12 15 11 16 -10 19 -5 0 -10 5 -9 10 0 5 -5 13
-13 17 -11 7 -10 11 2 19 13 8 13 10 -1 10 -9 0 -30 7 -45 15 -24 12 -26 15
-9 16 16 0 14 3 -7 11 -16 5 -28 15 -28 21 0 7 -17 20 -37 29 -22 10 -30 17
-20 17 10 1 15 6 12 11 -4 6 -10 8 -14 6 -4 -3 -26 6 -50 20 -24 13 -51 24
-61 24 -10 0 -20 6 -23 14 -3 7 -16 13 -29 12 -13 -1 -29 3 -37 8 -12 9 -13 7
-8 -8 6 -14 4 -17 -9 -12 -8 3 -20 6 -25 6 -6 0 -7 5 -4 10 3 6 4 10 1 10 -3
0 -13 -12 -21 -27 -13 -23 -15 -24 -12 -6 4 19 2 21 -19 13 -13 -5 -31 -7 -41
-3 -10 4 -14 2 -10 -4 4 -6 0 -13 -7 -16 -8 -3 -17 -1 -19 6 -3 7 -8 0 -12
-15 -6 -25 -16 -33 -37 -29 -5 0 -8 -10 -8 -23 0 -14 -7 -26 -17 -29 -10 -2
-26 -8 -35 -12 -16 -6 -17 -5 -4 19 17 33 99 121 134 144 36 24 132 57 162 56
14 -1 40 -4 59 -9z m744 -47 c15 -7 25 -18 23 -24 -3 -7 4 -10 17 -7 20 4 21
4 4 -7 -14 -9 -22 -9 -30 -1 -6 6 -21 11 -33 11 -12 0 -27 7 -34 15 -10 12
-15 13 -21 4 -6 -10 -11 -10 -21 -1 -14 11 -80 14 -74 3 2 -3 -7 -7 -20 -7
l-25 -2 23 20 c20 17 33 19 93 15 39 -3 82 -12 98 -19z m-1003 -122 c0 -2 -7
-7 -16 -10 -8 -3 -12 -2 -9 4 6 10 25 14 25 6z m1603 -48 c14 -7 31 -23 37
-36 15 -35 12 -36 -14 -6 -18 22 -32 28 -62 28 -22 0 -47 -4 -56 -8 -13 -6
-18 -4 -18 7 0 25 71 34 113 15z m4254 -14 c-3 -3 -12 -4 -19 -1 -8 3 -5 6 6
6 11 1 17 -2 13 -5z m-5287 -154 c0 -5 -2 -10 -4 -10 -3 0 -8 5 -11 10 -3 6
-1 10 4 10 6 0 11 -4 11 -10z m47 -6 c-3 -3 -12 -4 -19 -1 -8 3 -5 6 6 6 11 1
17 -2 13 -5z m2705 -45 c36 -13 85 -44 130 -84 113 -97 232 -216 260 -260 30
-47 159 -185 173 -185 17 1 48 32 107 106 69 86 137 145 242 208 44 26 101 70
129 97 27 27 57 49 66 48 10 0 11 -2 4 -6 -7 -2 -13 -11 -13 -19 0 -8 -6 -14
-12 -14 -10 0 -9 -3 1 -9 9 -6 10 -11 2 -15 -6 -4 -15 -4 -21 -1 -13 8 -13 -8
1 -22 8 -8 7 -13 -2 -18 -8 -5 -10 -4 -5 3 5 8 0 12 -13 12 -25 0 -26 -4 -5
-24 14 -15 12 -16 -18 -17 -27 0 -30 -2 -13 -9 18 -8 18 -9 2 -9 -10 -1 -16
-5 -13 -10 3 -5 -15 -12 -41 -16 -52 -8 -96 -32 -86 -48 4 -6 0 -8 -9 -5 -10
4 -23 -4 -37 -23 -12 -16 -28 -29 -36 -29 -8 0 -15 -4 -15 -10 0 -5 -10 -10
-22 -10 -17 0 -19 -3 -10 -9 10 -6 8 -10 -8 -14 -12 -3 -19 -10 -16 -15 5 -9
-20 -39 -59 -71 -9 -7 -14 -15 -11 -18 7 -8 66 18 66 28 0 5 4 9 10 9 5 0 31
15 57 34 150 106 212 101 390 -32 43 -32 96 -69 118 -82 22 -14 47 -30 55 -37
29 -23 402 -288 433 -308 18 -10 37 -24 44 -30 25 -22 141 -105 428 -308 69
-49 125 -90 125 -93 0 -11 -137 51 -157 72 -7 7 -58 43 -114 80 -56 37 -103
74 -106 81 -3 7 -14 13 -24 13 -10 0 -19 4 -19 9 0 13 -70 52 -81 46 -5 -4 -9
3 -9 15 0 15 -8 22 -30 27 -16 3 -30 9 -30 14 0 4 -19 14 -42 20 -24 6 -37 14
-30 16 17 6 15 23 -3 23 -8 0 -14 6 -13 12 2 7 -7 14 -19 16 -13 2 -23 8 -23
13 0 5 -12 9 -27 9 -21 0 -24 3 -14 9 12 8 9 11 -12 16 -15 4 -32 16 -37 26
-7 11 -16 16 -27 12 -11 -4 -14 -3 -9 5 5 8 -7 19 -33 31 -23 10 -38 20 -35
23 2 3 -7 8 -20 12 -14 3 -25 12 -23 19 1 7 -10 13 -26 15 -15 2 -25 8 -22 13
4 5 -3 9 -13 9 -11 0 -22 7 -26 15 -3 8 -12 15 -21 15 -9 0 -25 9 -37 20 -12
11 -28 20 -35 20 -7 0 -13 6 -13 14 0 17 -50 51 -70 47 -8 -1 -12 0 -8 4 4 4
-9 21 -29 37 -38 30 -92 37 -120 15 -7 -5 -18 -7 -25 -4 -7 3 -4 6 7 6 17 1
17 3 5 11 -13 8 -13 10 1 10 9 0 16 7 16 15 0 11 -4 12 -13 4 -9 -7 -14 -4
-19 11 -6 20 -8 20 -24 6 -19 -18 -46 -22 -36 -6 8 13 -15 13 -35 0 -13 -8
-13 -10 2 -10 9 0 19 -4 22 -9 3 -4 -12 -7 -34 -5 -41 4 -63 -12 -39 -27 21
-13 -8 -31 -43 -26 -16 2 -28 0 -28 -5 0 -4 -7 -8 -16 -8 -8 0 -12 -4 -9 -10
3 -5 0 -10 -7 -10 -7 0 -26 -13 -41 -30 -16 -16 -24 -30 -18 -30 5 0 13 5 16
10 3 6 11 10 17 10 6 0 3 -9 -6 -19 -10 -11 -24 -17 -31 -15 -13 5 -45 -21
-45 -37 0 -6 -4 -7 -10 -4 -5 3 -10 -2 -11 -12 -1 -13 -3 -11 -9 7 -5 17 -8
19 -9 8 -1 -10 -8 -18 -16 -18 -8 0 -15 -7 -15 -15 0 -8 -4 -15 -10 -15 -5 0
-10 5 -10 10 0 6 -8 5 -19 -2 -16 -10 -18 -15 -8 -27 10 -11 9 -13 -3 -9 -24
9 -50 -11 -50 -38 0 -14 -4 -23 -10 -19 -6 4 -8 11 -5 16 4 5 -3 9 -14 9 -12
0 -21 -7 -21 -15 0 -8 5 -15 10 -15 6 0 10 -4 10 -9 0 -9 -29 -8 -48 2 -4 2
-18 -8 -32 -21 -24 -24 -24 -25 -3 -20 14 4 20 2 17 -6 -3 -8 -17 -11 -34 -8
-24 3 -30 0 -31 -14 0 -11 -3 -14 -6 -6 -7 18 -20 15 -26 -8 -3 -11 -10 -20
-17 -20 -6 0 -8 5 -4 13 4 6 -5 0 -20 -15 -15 -15 -25 -32 -21 -38 3 -5 2 -10
-4 -10 -5 0 -12 6 -14 13 -4 7 -8 3 -13 -11 -5 -17 -12 -22 -25 -19 -11 3 -17
2 -16 -1 2 -4 -4 -15 -15 -24 -10 -10 -18 -15 -18 -12 0 3 -13 -3 -29 -12 -19
-11 -27 -23 -23 -32 4 -11 0 -14 -16 -10 -13 4 -23 0 -26 -9 -4 -9 -2 -11 6
-7 6 4 8 3 5 -4 -4 -5 -17 -8 -30 -5 -18 4 -19 3 -7 -6 12 -9 10 -11 -12 -11
-28 0 -38 -15 -15 -23 6 -2 5 -3 -5 -2 -9 2 -36 -10 -60 -26 -23 -16 -51 -29
-61 -29 -10 0 -20 -7 -23 -15 -4 -8 -11 -15 -16 -15 -6 0 -20 -10 -33 -22 -12
-12 -29 -22 -37 -24 -9 -1 -28 -10 -44 -20 -26 -17 -69 -36 -118 -51 -13 -4
-17 -2 -12 5 6 10 133 103 261 192 125 86 195 142 189 152 -4 7 -3 8 4 4 11
-7 102 49 110 67 2 4 8 7 13 7 5 0 66 42 136 93 71 51 147 105 171 121 31 21
42 35 39 48 -3 10 0 18 6 18 7 0 5 5 -3 10 -19 12 -8 13 24 0 20 -7 24 -6 19
5 -3 8 -13 15 -22 16 -9 0 -11 3 -4 5 7 3 0 16 -19 35 -19 18 -26 29 -17 30
10 0 11 2 1 6 -6 2 -9 10 -5 16 4 7 0 8 -12 3 -16 -6 -16 -4 -4 11 8 9 9 14 3
10 -7 -4 -16 5 -23 22 -11 25 -16 28 -54 25 -42 -4 -97 12 -97 26 0 15 -78 90
-93 90 -9 0 -19 -18 -26 -46 -14 -56 -50 -111 -76 -118 -59 -16 -89 5 -125 89
-12 27 -26 53 -32 57 -12 7 -35 -28 -40 -60 -6 -32 -60 -82 -89 -82 -40 0 -94
51 -115 108 -22 58 -39 79 -63 77 -24 -1 -78 -49 -110 -95 -40 -57 -72 -79
-100 -69 -27 11 -26 11 -35 -18 -5 -14 -3 -23 4 -23 6 0 4 -10 -6 -25 -14 -22
-14 -25 -1 -25 28 0 25 -25 -5 -41 l-30 -15 26 -18 c23 -15 27 -15 32 -1 3 8
16 15 28 15 20 -1 20 -1 2 -15 -18 -13 -14 -41 5 -30 5 4 9 1 9 -4 0 -13 -4
-13 -54 -1 -32 7 -46 5 -68 -8 -25 -15 -30 -15 -38 -2 -7 10 -10 11 -10 3 0
-7 -8 -13 -17 -13 -15 0 -16 -2 -3 -9 8 -6 18 -7 22 -5 4 3 8 0 8 -5 0 -6 -7
-11 -15 -11 -8 0 -15 -7 -15 -15 0 -8 -4 -15 -8 -15 -11 0 -52 -35 -52 -44 0
-14 -50 -56 -67 -56 -17 -1 -17 -1 0 -11 9 -5 17 -18 16 -27 0 -10 -3 -12 -6
-4 -2 6 -12 12 -20 12 -9 0 -13 -6 -10 -14 4 -9 -2 -17 -14 -21 -10 -4 -19
-11 -19 -16 0 -5 -10 -9 -22 -9 -17 0 -19 -3 -10 -9 11 -7 11 -9 -2 -14 -29
-11 -6 -36 37 -39 40 -3 39 -4 -22 -13 -39 -6 -66 -15 -69 -24 -3 -8 0 -11 7
-7 7 5 9 1 4 -10 -5 -14 -3 -16 11 -11 10 4 15 3 11 -3 -3 -6 -14 -10 -23 -10
-25 -1 -50 -23 -44 -39 3 -8 0 -11 -7 -7 -7 4 -11 0 -11 -13 0 -11 6 -21 13
-24 6 -2 2 -2 -11 0 -12 2 -21 0 -20 -4 3 -16 -17 -49 -49 -83 -18 -19 -33
-41 -33 -47 0 -16 -9 -16 -39 1 l-25 14 30 15 c16 8 36 28 44 44 8 15 26 43
39 61 22 30 36 56 89 157 9 17 49 80 91 140 41 61 92 137 114 170 21 33 65 99
98 147 32 48 59 91 59 96 0 5 13 26 30 48 16 21 30 44 30 49 0 17 88 136 151
208 63 71 107 99 199 128 73 23 193 18 272 -12z m2358 -109 c0 -5 -5 -10 -11
-10 -5 0 -7 5 -4 10 3 6 8 10 11 10 2 0 4 -4 4 -10z m-5512 -36 c27 -18 20
-39 -8 -24 -24 13 -33 13 -25 0 4 -7 -3 -7 -20 0 -37 14 -58 13 -49 -2 5 -8 1
-8 -10 1 -15 13 -19 13 -26 1 -5 -8 -12 -12 -15 -8 -3 3 6 15 21 27 32 25 99
28 132 5z m237 -48 c21 -21 55 -74 55 -85 0 -6 -7 -11 -15 -11 -8 0 -15 9 -15
19 0 21 -39 54 -79 66 -23 7 -24 8 -7 21 18 13 42 9 61 -10z m1991 -83 c33
-14 28 -15 -69 -17 -64 -2 -84 8 -36 18 22 4 33 14 41 38 l12 33 12 -30 c6
-16 25 -35 40 -42z m3244 -21 c0 -5 -11 -14 -25 -20 -22 -10 -25 -9 -25 8 0
15 7 20 25 20 14 0 25 -4 25 -8z m-5387 -12 c14 0 15 -3 5 -13 -9 -11 -19 -11
-40 -3 -33 12 -38 31 -5 22 12 -3 30 -6 40 -6z m717 -10 c0 -5 -2 -10 -4 -10
-3 0 -8 5 -11 10 -3 6 -1 10 4 10 6 0 11 -4 11 -10z m4620 -40 c0 -5 -2 -10
-4 -10 -3 0 -8 5 -11 10 -3 6 -1 10 4 10 6 0 11 -4 11 -10z m-3755 -34 c10
-21 25 -36 38 -38 11 -2 22 -8 24 -13 4 -12 -140 -15 -152 -4 -3 4 8 11 25 17
22 8 32 19 36 42 4 16 8 30 10 30 2 0 10 -15 19 -34z m4973 -3 c43 -18 107
-83 109 -111 2 -22 2 -22 -25 3 -15 14 -34 25 -42 24 -10 0 -11 -2 -3 -6 10
-3 10 -8 -1 -19 -19 -18 -30 -18 -23 0 4 10 0 14 -13 13 -13 -1 -24 -13 -31
-34 -7 -22 -19 -35 -34 -39 -13 -3 -30 -13 -37 -22 -11 -13 -10 -15 4 -9 28
10 11 -17 -22 -37 -17 -9 -30 -22 -30 -27 0 -6 5 -7 10 -4 6 3 10 1 10 -4 0
-6 -7 -11 -15 -11 -8 0 -15 -8 -15 -17 0 -15 2 -16 10 -3 5 8 10 10 10 4 0
-18 -26 -35 -44 -28 -12 5 -15 2 -10 -10 4 -11 -5 -26 -27 -46 -19 -16 -28
-30 -21 -30 8 0 10 -8 6 -26 -5 -19 -4 -25 5 -20 22 14 5 -56 -19 -74 -15 -11
-19 -19 -11 -24 6 -4 11 -2 11 5 0 7 3 9 6 6 4 -4 -1 -18 -10 -32 -15 -22 -15
-26 -1 -31 23 -9 19 -37 -4 -29 -15 5 -24 -1 -35 -24 -20 -38 -20 -51 -1 -25
14 18 14 17 15 -13 0 -17 -5 -35 -10 -38 -6 -4 -8 -11 -4 -16 3 -5 9 -7 14 -4
4 3 10 -4 13 -15 3 -13 0 -20 -9 -20 -8 0 -14 -4 -14 -10 0 -5 -11 -10 -25
-10 -25 0 -34 -14 -16 -24 5 -4 11 0 14 6 2 7 8 9 13 5 4 -4 3 -16 -3 -26 -10
-16 -9 -20 8 -24 10 -3 19 -11 19 -19 0 -11 -2 -11 -9 1 -9 14 -12 11 -37 -36
-10 -18 -9 -22 8 -26 14 -4 18 -1 14 8 -3 9 0 12 10 8 7 -3 14 -9 14 -13 0
-12 -28 -20 -44 -14 -16 6 -41 -32 -27 -40 5 -3 11 -19 13 -35 4 -26 2 -29
-13 -20 -11 6 -20 5 -24 -1 -3 -5 6 -12 20 -16 14 -3 25 -10 25 -15 0 -12 -17
-11 -25 1 -3 6 -12 10 -18 10 -8 0 -7 -3 2 -9 7 -5 11 -13 7 -19 -3 -6 2 -13
13 -17 25 -8 27 -65 2 -60 -9 2 -29 -8 -44 -21 -17 -15 -23 -24 -14 -24 8 0
17 6 20 13 2 7 18 13 33 14 l29 2 -28 -11 c-15 -5 -25 -14 -21 -19 3 -5 0 -9
-6 -9 -6 0 -8 -5 -4 -12 5 -8 1 -8 -12 2 -10 8 -16 10 -12 6 4 -5 0 -15 -10
-22 -15 -12 -15 -12 6 -7 18 4 22 1 22 -16 0 -12 -6 -21 -16 -21 -8 0 -13 -4
-10 -8 3 -5 -2 -27 -10 -51 -10 -30 -11 -47 -4 -61 13 -25 13 -51 0 -30 -6 9
-10 10 -10 3 0 -6 10 -19 22 -27 17 -12 20 -18 10 -28 -9 -9 -12 -8 -12 5 0 9
-4 17 -9 17 -5 0 -9 -14 -9 -32 1 -18 -4 -34 -10 -36 -15 -5 -16 -84 -1 -99 8
-8 8 -13 0 -17 -6 -4 -11 -2 -11 4 0 6 -5 8 -10 5 -6 -4 -8 -11 -4 -16 3 -5 0
-16 -6 -24 -8 -9 -8 -15 -2 -15 6 0 12 5 14 12 3 9 6 9 11 1 4 -6 1 -18 -7
-25 -20 -20 -29 -55 -16 -63 17 -11 26 5 10 16 -13 9 -13 10 -1 7 22 -6 24
-24 6 -42 -9 -9 -13 -20 -10 -26 4 -6 1 -9 -7 -8 -8 2 -12 -5 -10 -21 1 -13
-2 -29 -7 -35 -5 -6 -7 -28 -6 -48 2 -23 -2 -39 -11 -42 -9 -3 -11 -16 -7 -42
4 -27 3 -35 -5 -30 -7 4 -12 2 -12 -5 0 -7 -3 -10 -6 -6 -8 7 7 158 15 153 3
-2 6 21 6 52 0 32 6 107 13 167 16 138 36 325 56 525 80 791 113 988 187 1096
67 98 164 130 267 87z m-1283 -1 c-11 -11 -43 -8 -38 4 2 6 13 9 24 7 11 -3
17 -8 14 -11z m-55 -19 c0 -5 -5 -15 -10 -23 -8 -12 -10 -11 -10 8 0 12 5 22
10 22 6 0 10 -3 10 -7z m-2513 -29 c-3 -3 -12 -4 -19 -1 -8 3 -5 6 6 6 11 1
17 -2 13 -5z m2553 -9 c15 -18 13 -20 -17 -29 -24 -8 -28 0 -17 28 8 20 18 20
34 1z m-1230 -15 c0 -5 -12 -10 -27 -9 l-28 1 25 8 c14 4 26 8 28 9 1 1 2 -3
2 -9z m-1353 -6 c-3 -3 -12 -4 -19 -1 -8 3 -5 6 6 6 11 1 17 -2 13 -5z m-62
-24 c3 -5 1 -10 -4 -10 -6 0 -11 5 -11 10 0 6 2 10 4 10 3 0 8 -4 11 -10z
m122 -6 c-3 -3 -12 -4 -19 -1 -8 3 -5 6 6 6 11 1 17 -2 13 -5z m1128 -14 c-3
-5 -11 -10 -16 -10 -6 0 -7 5 -4 10 3 6 11 10 16 10 6 0 7 -4 4 -10z m-1148
-26 c-3 -3 -12 -4 -19 -1 -8 3 -5 6 6 6 11 1 17 -2 13 -5z m1108 -4 c-3 -5
-10 -10 -16 -10 -5 0 -9 5 -9 10 0 6 7 10 16 10 8 0 12 -4 9 -10z m455 -6 c0
-2 -7 -4 -15 -4 -8 0 -15 4 -15 10 0 5 7 7 15 4 8 -4 15 -8 15 -10z m-1606
-25 c-20 -23 -36 -25 -28 -4 4 8 13 15 21 15 8 0 11 5 7 12 -5 7 -3 8 5 4 9
-6 8 -13 -5 -27z m846 27 c0 -3 -4 -8 -10 -11 -5 -3 -10 -1 -10 4 0 6 5 11 10
11 6 0 10 -2 10 -4z m25 -17 c-4 -5 -12 -9 -18 -8 -9 0 -8 2 1 6 6 2 9 10 6
15 -4 7 -2 8 5 4 6 -4 9 -12 6 -17z m-815 1 c-8 -5 -19 -10 -25 -10 -5 0 -3 5
5 10 8 5 20 10 25 10 6 0 3 -5 -5 -10z m1520 -14 c0 -9 -8 -12 -27 -8 l-28 6
25 7 c14 4 26 7 28 8 1 1 2 -5 2 -13z m-1717 -16 c-3 -12 -8 -19 -11 -16 -5 6
5 36 12 36 2 0 2 -9 -1 -20z m44 -27 c-3 -10 -5 -4 -5 12 0 17 2 24 5 18 2 -7
2 -21 0 -30z m400 31 c-3 -3 -12 -4 -19 -1 -8 3 -5 6 6 6 11 1 17 -2 13 -5z
m398 -4 c3 -5 -1 -10 -10 -10 -9 0 -13 5 -10 10 3 6 8 10 10 10 2 0 7 -4 10
-10z m-744 -10 c5 0 4 -6 -3 -14 -9 -10 -17 -11 -25 -4 -18 15 -16 31 3 24 9
-3 20 -6 25 -6z m92 -5 c4 -8 1 -17 -5 -21 -7 -4 -8 -3 -4 4 4 7 2 12 -3 12
-6 0 -11 5 -11 10 0 15 17 12 23 -5z m34 9 c-3 -3 -12 -4 -19 -1 -8 3 -5 6 6
6 11 1 17 -2 13 -5z m258 -14 c-3 -4 1 -11 7 -13 7 -3 9 -6 3 -6 -18 -1 -38
17 -31 28 4 6 12 9 17 5 5 -3 7 -9 4 -14z m421 -12 c4 -6 3 -8 -4 -4 -5 3 -13
0 -15 -6 -3 -8 -6 -6 -6 5 -1 19 14 23 25 5z m-765 -5 c-9 -4 -10 -7 -2 -13 7
-3 -2 -7 -20 -7 -31 0 -31 0 -7 13 12 7 28 13 33 13 6 0 4 -3 -4 -6z m243 -8
c-7 -17 -20 -20 -29 -6 -3 5 3 12 12 14 10 3 19 5 20 6 1 0 0 -6 -3 -14z m53
8 c-9 -2 -15 -9 -12 -14 4 -5 2 -9 -3 -9 -6 0 -12 7 -16 15 -4 11 2 15 22 14
17 -1 20 -3 9 -6z m568 -3 c-3 -5 -12 -10 -18 -10 -7 0 -6 4 3 10 19 12 23 12
15 0z m-75 -10 c0 -5 -5 -10 -11 -10 -5 0 -7 5 -4 10 3 6 8 10 11 10 2 0 4 -4
4 -10z m-606 -12 c-3 -4 -12 -8 -20 -8 -8 0 -13 4 -10 8 3 5 12 9 20 9 8 0 13
-4 10 -9z m-354 -8 c11 -8 7 -9 -15 -4 -37 8 -45 14 -19 14 10 0 26 -5 34 -10z
m-101 -16 c6 4 11 2 11 -3 0 -6 -9 -11 -21 -11 -11 0 -17 -4 -14 -10 3 -6 -1
-7 -9 -4 -9 3 -16 13 -16 21 0 8 5 11 10 8 6 -3 10 0 10 7 0 10 2 10 9 -1 5
-7 14 -10 20 -7z m251 9 c-8 -3 -21 -10 -28 -16 -9 -7 -11 -6 -6 7 3 9 16 16
28 15 14 0 16 -2 6 -6z m-90 -22 c0 -5 -9 -7 -20 -4 -11 3 -20 7 -20 9 0 2 9
4 20 4 11 0 20 -4 20 -9z m723 -3 c4 -10 8 -9 16 2 12 18 26 7 14 -12 -12 -20
-41 -18 -46 3 -6 21 8 26 16 7z m104 -4 c-3 -3 -12 -4 -19 -1 -8 3 -5 6 6 6
11 1 17 -2 13 -5z m360 -10 c-3 -3 -12 -4 -19 -1 -8 3 -5 6 6 6 11 1 17 -2 13
-5z m-527 -14 c0 -5 -8 -10 -17 -10 -15 0 -16 2 -3 10 19 12 20 12 20 0z
m-795 -10 c-3 -5 -13 -10 -21 -10 -8 0 -12 5 -9 10 3 6 13 10 21 10 8 0 12 -4
9 -10z m-115 -16 c0 -2 -7 -4 -15 -4 -8 0 -15 4 -15 10 0 5 7 7 15 4 8 -4 15
-8 15 -10z m991 -11 c13 -16 12 -17 -3 -4 -10 7 -18 15 -18 17 0 8 8 3 21 -13z
m-124 -25 c-3 -8 -6 -5 -6 6 -1 11 2 17 5 13 3 -3 4 -12 1 -19z m406 15 c-7
-2 -19 -2 -25 0 -7 3 -2 5 12 5 14 0 19 -2 13 -5z m-306 -9 c-3 -3 -12 -4 -19
-1 -8 3 -5 6 6 6 11 1 17 -2 13 -5z m-997 -14 c0 -5 -7 -7 -15 -4 -8 4 -15 8
-15 10 0 2 7 4 15 4 8 0 15 -4 15 -10z m110 0 c0 -5 -5 -10 -11 -10 -5 0 -7 5
-4 10 3 6 8 10 11 10 2 0 4 -4 4 -10z m4005 3 c-11 -3 -23 -10 -27 -17 -5 -7
-8 -7 -8 0 0 16 11 24 34 23 20 -1 20 -1 1 -6z m-3890 -13 c3 -5 1 -10 -4 -10
-6 0 -11 5 -11 10 0 6 2 10 4 10 3 0 8 -4 11 -10z m3842 -12 c-3 -8 -6 -5 -6
6 -1 11 2 17 5 13 3 -3 4 -12 1 -19z m-2677 -22 c0 -2 -7 -6 -15 -10 -8 -3
-15 -1 -15 4 0 6 7 10 15 10 8 0 15 -2 15 -4z m2687 -28 c-3 -8 -6 -5 -6 6 -1
11 2 17 5 13 3 -3 4 -12 1 -19z m-4127 2 c0 -5 -2 -10 -4 -10 -3 0 -8 5 -11
10 -3 6 -1 10 4 10 6 0 11 -4 11 -10z m30 -15 c-7 -8 -17 -15 -22 -15 -11 0
14 29 26 30 5 0 3 -7 -4 -15z m-814 -52 c-6 -6 -36 9 -36 18 0 5 9 4 20 -3 10
-7 18 -14 16 -15z m709 7 c3 -5 1 -10 -4 -10 -6 0 -11 5 -11 10 0 6 2 10 4 10
3 0 8 -4 11 -10z m-677 -45 c-3 -3 -9 2 -12 12 -6 14 -5 15 5 6 7 -7 10 -15 7
-18z m42 -20 c7 -8 8 -15 2 -15 -5 0 -15 7 -22 15 -7 8 -8 15 -2 15 5 0 15 -7
22 -15z m1917 -1 c-3 -3 -12 -4 -19 -1 -8 3 -5 6 6 6 11 1 17 -2 13 -5z m-272
-33 c3 -5 1 -12 -5 -16 -5 -3 -10 1 -10 9 0 18 6 21 15 7z m3135 -21 c0 -5 -2
-10 -4 -10 -3 0 -8 5 -11 10 -3 6 -1 10 4 10 6 0 11 -4 11 -10z m-3119 -57
c13 -16 12 -17 -3 -4 -10 7 -18 15 -18 17 0 8 8 3 21 -13z m114 -43 c3 -5 1
-10 -4 -10 -6 0 -11 5 -11 10 0 6 2 10 4 10 3 0 8 -4 11 -10z m-3395 -40 c6
-11 8 -20 6 -20 -3 0 -10 9 -16 20 -6 11 -8 20 -6 20 3 0 10 -9 16 -20z m45
10 c11 -17 -5 -32 -21 -19 -8 6 -14 15 -14 20 0 12 27 11 35 -1z m154 -37 c24
-14 46 -34 48 -44 3 -10 12 -20 22 -22 9 -2 1 -5 -16 -8 -26 -4 -30 -3 -22 8
9 10 5 15 -17 23 -47 16 -59 27 -56 46 2 14 1 16 -6 6 -14 -20 -103 -6 -95 15
8 21 86 8 142 -24z m1861 -123 c0 -5 -7 -7 -15 -4 -8 4 -15 8 -15 10 0 2 7 4
15 4 8 0 15 -4 15 -10z m231 -59 c96 -5 181 -9 189 -9 8 0 150 -1 315 -2 165
-1 400 -2 522 -1 203 1 471 -12 516 -25 10 -3 17 -13 15 -22 -3 -12 -12 -16
-36 -14 -18 1 -32 -3 -32 -9 0 -8 -4 -9 -13 0 -8 6 -16 9 -18 7 -2 -2 -17 -6
-33 -10 -26 -6 -28 -5 -17 8 8 9 22 16 32 16 11 0 19 5 19 10 0 12 -37 13 -44
1 -3 -5 -34 -9 -69 -9 -34 0 -74 -3 -88 -7 -15 -4 -29 -2 -33 3 -3 5 -20 8
-38 6 -18 -2 -35 1 -40 8 -6 9 -10 10 -15 2 -10 -15 -53 -28 -53 -17 0 5 -25
6 -55 3 -30 -3 -56 -2 -57 2 -2 5 -27 11 -57 15 -44 5 -55 3 -63 -10 -5 -10
-14 -17 -21 -17 -8 0 -6 4 3 11 15 11 14 11 -35 -1 -22 -5 -56 1 -51 9 3 4 -7
6 -22 4 -29 -4 -164 -13 -197 -13 -11 0 -60 0 -110 -1 -194 0 -246 0 -400 3
-88 2 -166 7 -172 11 -7 5 -18 5 -25 1 -17 -10 -108 -16 -108 -6 0 4 -24 6
-52 4 -144 -7 -415 -8 -430 0 -11 5 -18 5 -18 0 0 -6 -64 -8 -147 -7 -90 2
-153 -1 -160 -7 -9 -7 -13 -7 -13 2 0 7 -14 11 -37 10 -21 -1 -40 -1 -43 0
-18 7 -98 5 -112 -2 -12 -6 -18 -5 -18 3 0 8 -4 9 -13 0 -8 -6 -16 -9 -19 -6
-10 10 -87 13 -90 3 -3 -7 -15 -7 -39 2 -29 10 -40 10 -73 -4 -21 -9 -42 -13
-47 -10 -5 3 -9 -2 -9 -10 0 -20 -14 -20 -30 -1 -20 25 12 65 53 65 17 0 120
3 227 7 107 3 211 6 230 5 68 -1 727 0 824 1 71 2 101 6 104 15 3 9 8 10 17 2
6 -5 90 -14 186 -19z m4069 -33 c0 -10 -4 -18 -10 -18 -5 0 -10 9 -10 19 0 11
-5 23 -10 26 -6 4 -7 11 -4 17 9 14 34 -19 34 -44z m-1923 15 c-11 -3 -16 -11
-13 -19 3 -9 -1 -14 -14 -14 -11 0 -20 4 -20 9 0 4 -12 6 -27 3 -16 -3 -22 -7
-15 -10 27 -9 0 -19 -32 -12 -26 6 -38 4 -50 -8 -16 -16 -22 -6 -8 14 11 16
70 37 87 30 9 -3 14 -2 11 3 -3 4 18 8 47 8 29 1 44 -1 34 -4z m73 -7 c0 -2
-7 -7 -16 -10 -8 -3 -12 -2 -9 4 6 10 25 14 25 6z m-3379 -202 c5 -15 8 -29 5
-31 -2 -3 -7 5 -11 16 -3 12 -11 21 -18 21 -8 0 -8 -3 1 -12 7 -7 12 -19 12
-27 0 -8 -3 -11 -7 -8 -3 4 -13 1 -21 -5 -11 -10 -18 -7 -33 12 -15 20 -21 22
-28 11 -6 -9 -10 -10 -16 -2 -10 17 12 39 43 44 57 9 63 7 73 -19z m431 -4
c25 -35 24 -54 -2 -40 -11 6 -20 7 -20 2 0 -12 -54 -6 -58 6 -2 6 -12 8 -22 5
-26 -7 -25 12 0 37 28 28 80 23 102 -10z m868 1 c11 -22 14 -58 3 -48 -3 4
-12 2 -20 -4 -10 -9 -13 -8 -13 0 0 8 -5 9 -16 3 -18 -10 -84 16 -84 34 0 33
113 46 130 15z m846 -1 c1 0 4 -7 7 -14 4 -10 1 -13 -9 -9 -10 4 -12 0 -8 -12
6 -14 1 -16 -27 -14 -19 2 -40 10 -48 17 -11 11 -11 16 5 31 15 14 26 16 49 9
16 -4 31 -8 31 -8z m-1306 0 c0 -5 -4 -10 -9 -10 -6 0 -13 5 -16 10 -3 6 1 10
9 10 9 0 16 -4 16 -10z m843 -10 c-6 -21 -24 -23 -30 -3 -2 6 4 13 14 16 10 3
19 5 20 6 0 0 -1 -8 -4 -19z m-893 0 c0 -5 -2 -10 -4 -10 -3 0 -8 5 -11 10 -3
6 -1 10 4 10 6 0 11 -4 11 -10z m3160 -30 c0 -5 -2 -10 -4 -10 -3 0 -8 5 -11
10 -3 6 -1 10 4 10 6 0 11 -4 11 -10z m325 -40 c-3 -5 -11 -10 -16 -10 -6 0
-7 5 -4 10 3 6 11 10 16 10 6 0 7 -4 4 -10z m854 -121 c-19 -12 -24 -2 -8 17
9 11 14 13 17 4 3 -7 -2 -16 -9 -21z m-4107 -21 c21 1 38 0 38 -2 0 -2 -21
-14 -46 -26 -43 -20 -184 -150 -184 -170 0 -4 -12 -16 -27 -26 -15 -9 -36 -25
-47 -35 -18 -18 -20 -17 -55 12 -20 17 -75 71 -123 120 -48 49 -95 89 -103 89
-9 0 -37 -20 -63 -45 -25 -25 -43 -45 -39 -45 4 0 -19 -28 -51 -61 -69 -72
-66 -72 -157 21 -109 112 -127 129 -146 135 -23 8 -24 21 -3 29 33 13 47 4
138 -84 51 -49 100 -90 108 -90 12 0 98 86 127 127 19 28 68 53 101 53 38 0
29 8 186 -157 23 -24 49 -43 58 -43 17 0 112 81 130 110 21 33 98 100 108 94
6 -4 28 -6 50 -6z m234 -20 c162 -122 383 -338 345 -338 -13 0 -103 69 -118
91 -7 9 -50 48 -95 85 -46 38 -87 74 -93 81 -5 6 -25 20 -44 31 -27 16 -38 18
-57 10 -13 -6 -24 -15 -24 -20 0 -4 -5 -8 -11 -8 -6 0 -75 -65 -155 -145 -137
-138 -164 -160 -164 -134 0 18 352 369 370 369 9 0 30 -10 46 -22z m303 -16
c20 -20 60 -63 89 -95 48 -51 82 -71 82 -49 0 5 37 46 82 90 l82 82 56 0 c53
0 57 -2 108 -53 29 -28 57 -58 61 -66 14 -22 45 -4 107 62 41 43 68 63 87 64
15 2 27 -2 27 -7 0 -6 -4 -10 -8 -10 -8 0 -45 -35 -136 -129 -51 -53 -66 -61
-66 -37 0 8 -6 16 -13 19 -7 3 -42 29 -77 60 -36 30 -75 58 -88 61 -28 9 -75
-19 -117 -69 -16 -20 -47 -55 -67 -78 -21 -23 -38 -45 -38 -49 0 -26 -44 4
-132 93 -63 62 -117 107 -142 117 l-41 17 35 6 c64 12 72 9 109 -29z m981 18
c-13 -23 -78 -75 -86 -67 -6 6 16 30 60 65 35 27 40 28 26 2z m-2648 -46 c29
-31 52 -62 52 -69 -1 -7 4 -12 10 -11 14 1 130 -133 122 -141 -3 -3 -16 6 -28
22 -12 15 -70 77 -130 137 -59 61 -108 112 -108 114 0 2 6 4 14 4 8 0 39 -25
68 -56z m4231 -11 c-7 -2 -19 -2 -25 0 -7 3 -2 5 12 5 14 0 19 -2 13 -5z
m1007 -7 c0 -11 -19 -15 -25 -6 -3 5 1 10 9 10 9 0 16 -2 16 -4z m-2698 -27
c-12 -5 -22 -15 -22 -23 0 -7 -11 -21 -25 -30 -14 -9 -25 -23 -25 -31 0 -8 -3
-14 -7 -13 -5 1 -36 -26 -71 -60 -35 -34 -65 -62 -69 -62 -8 0 5 15 92 103 42
42 81 77 87 77 6 0 8 3 5 7 -10 10 34 54 46 46 6 -3 1 -10 -11 -14z m2688 -9
c0 -5 -2 -10 -4 -10 -3 0 -8 5 -11 10 -3 6 -1 10 4 10 6 0 11 -4 11 -10z m-15
-61 c4 -11 4 -23 1 -26 -3 -4 -6 1 -6 10 0 10 -4 17 -10 17 -5 0 -10 5 -10 10
0 18 19 10 25 -11z m-845 -41 c0 -5 -15 -8 -37 -5 -20 3 -48 0 -62 -5 -14 -6
-31 -10 -37 -9 -6 0 -17 -6 -24 -14 -7 -8 -18 -15 -24 -15 -6 0 -17 -9 -24
-21 -7 -12 -16 -18 -19 -15 -4 3 -13 0 -22 -7 -9 -8 -25 -17 -35 -21 -16 -5
-17 -4 -6 9 7 8 16 15 21 15 4 0 20 11 35 25 46 43 116 71 178 73 31 0 56 -4
56 -10z m30 -9 c0 -6 -4 -7 -10 -4 -5 3 -10 11 -10 16 0 6 5 7 10 4 6 -3 10
-11 10 -16z m-4362 -78 c69 -36 119 -79 147 -128 25 -41 28 -58 28 -119 -1
-58 -7 -81 -30 -124 -26 -49 -76 -98 -105 -104 -7 -2 -26 -8 -41 -14 -16 -7
-33 -12 -38 -12 -5 0 -9 -8 -9 -17 -1 -16 -2 -16 -13 -2 -7 9 -24 19 -39 22
-15 4 -33 14 -41 22 -8 8 -17 12 -19 9 -3 -2 -11 2 -18 11 -7 8 -18 15 -25 15
-18 0 -85 80 -85 101 0 10 -6 19 -12 22 -9 2 -13 31 -13 98 0 83 3 98 24 127
26 38 64 76 77 79 5 1 27 9 49 17 55 21 119 20 163 -3z m3247 -56 c27 -17 48
-33 47 -37 -1 -5 -5 -7 -9 -5 -5 1 -7 5 -6 8 1 3 -4 6 -12 6 -8 0 -11 -5 -8
-10 4 -6 0 -8 -9 -5 -18 7 -31 0 -47 -27 l-12 -20 5 20 c5 18 1 20 -44 20 -27
0 -55 -6 -61 -12 -10 -10 -9 -13 5 -13 9 0 14 5 11 10 -3 6 1 10 9 10 18 0 20
-8 7 -29 -5 -8 -14 -10 -21 -6 -9 5 -11 4 -6 -3 8 -14 4 -15 -18 -6 -9 3 -13
10 -10 15 3 5 0 9 -5 9 -6 0 -11 -7 -11 -15 0 -8 5 -15 11 -15 5 0 7 -5 3 -11
-4 -8 1 -9 16 -4 14 4 20 3 16 -3 -3 -5 1 -13 10 -16 8 -3 13 -10 9 -15 -3 -6
2 -14 10 -19 10 -5 13 -15 9 -25 -5 -14 -14 -16 -46 -12 -27 4 -38 3 -33 -4 3
-6 13 -11 21 -11 8 0 14 -8 14 -17 0 -15 2 -16 10 -3 5 8 10 11 11 5 0 -5 2
-17 4 -26 2 -11 -3 -16 -14 -14 -9 1 -22 -3 -30 -9 -12 -9 -13 -8 -8 7 6 16 5
16 -26 1 -17 -9 -29 -13 -25 -9 11 12 -37 34 -67 31 -14 -2 -28 1 -31 6 -3 5
-12 4 -20 -3 -11 -9 -14 -8 -14 5 0 20 -15 21 -32 3 -10 -12 -15 -12 -26 0 -7
7 -32 13 -54 13 l-41 0 23 -25 c13 -14 18 -25 12 -25 -7 0 -12 6 -13 13 0 6
-4 3 -9 -8 -8 -19 -9 -19 -9 3 -1 21 -21 33 -21 12 0 -5 -7 -7 -16 -3 -9 3
-20 0 -26 -8 -7 -11 -11 -11 -15 -1 -2 6 -9 12 -14 12 -6 0 -7 -4 -4 -10 4 -6
-7 -10 -27 -10 -23 0 -37 -7 -46 -21 -7 -11 -19 -18 -27 -15 -8 3 -16 0 -19
-7 -2 -7 -5 0 -5 16 -1 18 -6 27 -17 27 -14 0 -14 -3 -4 -15 8 -9 8 -15 2 -15
-6 0 -20 12 -32 27 -16 20 -18 28 -8 35 8 4 9 8 2 8 -14 0 -16 58 -3 82 15 29
64 49 106 43 21 -2 73 -7 116 -10 71 -5 80 -4 110 19 18 13 43 27 57 31 24 7
79 41 90 56 7 9 69 40 100 50 14 5 57 7 96 6 59 -2 79 -7 119 -32z m-68 -71
c-3 -3 -12 -4 -19 -1 -8 3 -5 6 6 6 11 1 17 -2 13 -5z m-9 -21 c-10 -2 -18 -9
-18 -14 0 -6 -5 -7 -10 -4 -16 10 -1 25 23 24 17 -1 18 -2 5 -6z m-992 -30 c1
-20 -3 -22 -32 -20 -35 2 -43 14 -22 35 20 20 53 10 54 -15z m1034 23 c0 -2
-7 -7 -16 -10 -8 -3 -12 -2 -9 4 6 10 25 14 25 6z m-2766 -42 c18 -17 21 -28
6 -19 -5 3 -10 -1 -10 -9 0 -10 -9 -16 -25 -16 -18 0 -23 4 -18 15 3 10 1 15
-7 13 -20 -5 -23 20 -3 25 33 8 41 7 57 -9z m-1487 0 c-3 -3 -12 -4 -19 -1 -8
3 -5 6 6 6 11 1 17 -2 13 -5z m84 -26 c-11 -10 -13 -10 -7 0 4 6 2 12 -4 12
-6 0 -8 5 -4 11 4 8 9 8 17 0 8 -8 7 -14 -2 -23z m4120 -1 c-5 -5 -17 -5 -28
2 -16 9 -15 10 9 9 16 -2 24 -6 19 -11z m-4041 -33 c0 -2 -7 -4 -15 -4 -8 0
-15 4 -15 10 0 5 7 7 15 4 8 -4 15 -8 15 -10z m5975 6 c3 -5 1 -10 -4 -10 -6
0 -11 5 -11 10 0 6 2 10 4 10 3 0 8 -4 11 -10z m-1915 -12 c0 -4 -9 -8 -20 -8
-11 0 -20 4 -20 9 0 6 9 9 20 8 11 -1 20 -5 20 -9z m-6860 -18 c0 -5 -5 -10
-11 -10 -5 0 -7 5 -4 10 3 6 8 10 11 10 2 0 4 -4 4 -10z m2780 -10 c0 -5 -7
-10 -15 -10 -8 0 -15 5 -15 10 0 6 7 10 15 10 8 0 15 -4 15 -10z m50 -34 c0
-11 3 -16 6 -13 4 3 16 0 28 -8 11 -8 26 -15 33 -15 7 0 38 -12 69 -27 76 -36
157 -111 182 -170 24 -57 39 -148 23 -138 -6 3 -11 16 -11 29 0 34 -64 110
-119 140 -89 48 -180 31 -296 -56 -27 -21 -59 -51 -70 -68 -11 -16 -29 -30
-40 -30 -15 0 -17 -2 -6 -9 21 -14 -5 -24 -29 -11 -17 9 -19 14 -9 26 9 11 9
14 -1 14 -9 0 -8 6 4 19 10 11 15 28 12 42 -5 20 2 29 35 52 22 15 37 32 34
37 -3 5 -1 11 4 14 5 3 -7 22 -26 42 -19 20 -32 38 -30 41 11 10 67 21 72 13
3 -5 -9 -11 -26 -15 -28 -6 -29 -8 -15 -24 16 -18 50 -25 40 -9 -3 5 -10 6
-15 3 -5 -4 -9 -2 -9 4 0 5 9 13 20 16 15 5 19 12 15 25 -5 15 2 21 32 29 21
6 43 11 49 11 6 0 17 7 24 15 10 13 9 19 -6 37 -11 12 -13 18 -6 14 7 -4 12
-2 12 6 0 21 20 -14 20 -36z m4008 -21 c-6 -14 -13 -23 -15 -21 -5 5 15 46 22
46 3 0 -1 -11 -7 -25z m1920 0 c-13 -28 -42 -35 -36 -7 2 9 10 16 16 15 7 -2
12 2 12 7 0 6 4 10 10 10 6 0 5 -10 -2 -25z m-6128 3 c0 -4 -9 -8 -20 -8 -11
0 -20 4 -20 9 0 6 9 9 20 8 11 -1 20 -5 20 -9z m130 2 c0 -5 -5 -10 -11 -10
-5 0 -7 5 -4 10 3 6 8 10 11 10 2 0 4 -4 4 -10z m3615 1 c3 -5 1 -12 -5 -16
-5 -3 -10 1 -10 9 0 18 6 21 15 7z m-58 -17 c-3 -3 -12 -4 -19 -1 -8 3 -5 6 6
6 11 1 17 -2 13 -5z m2433 -56 c0 -5 -7 -8 -15 -8 -8 0 -15 -5 -15 -12 0 -6
-3 -8 -7 -5 -3 4 0 18 7 32 10 19 16 22 22 13 4 -7 8 -16 8 -20z m-2301 10
c28 -6 48 -15 45 -19 -2 -4 -14 -6 -25 -4 -22 4 -103 -70 -93 -86 3 -5 1 -9
-5 -9 -16 0 -29 -61 -20 -92 5 -19 4 -28 -4 -28 -8 0 -8 -3 0 -11 12 -12 53
-3 53 12 0 5 9 9 21 9 20 0 20 1 -4 30 -14 16 -28 38 -32 49 -15 47 41 108 92
98 66 -12 79 -18 104 -48 19 -24 32 -31 47 -27 15 4 23 0 27 -13 3 -10 12 -16
19 -13 8 3 15 -4 18 -20 3 -16 1 -23 -7 -19 -17 6 -29 -45 -14 -63 18 -22 42
-18 36 6 -3 11 -1 20 5 20 15 0 6 -172 -9 -177 -7 -3 -9 -11 -6 -19 3 -8 -1
-14 -11 -14 -9 0 -16 -7 -16 -15 0 -9 -7 -18 -15 -21 -8 -4 -13 -9 -11 -13 8
-12 -60 -52 -92 -54 -29 -2 -57 -27 -30 -27 7 0 7 -4 -1 -14 -13 -16 -51 -10
-51 8 0 7 5 17 11 23 9 9 7 12 -9 10 -18 -1 -21 -6 -16 -27 4 -14 9 -46 11
-72 3 -27 9 -46 14 -42 5 3 6 -2 3 -10 -4 -9 -1 -16 6 -16 9 0 11 10 7 30 -5
24 -2 33 17 45 13 9 27 27 30 41 7 26 46 35 46 9 0 -19 -21 -65 -31 -65 -4 0
-9 -6 -12 -14 -4 -10 0 -12 14 -9 22 6 42 37 31 48 -4 3 1 13 11 20 10 7 17
21 15 32 -2 13 2 17 19 15 14 -2 33 9 56 33 29 30 36 33 47 21 7 -10 9 -28 5
-48 -4 -24 -3 -29 4 -18 8 11 13 12 22 3 9 -9 8 -16 -5 -29 -17 -17 -17 -39 1
-39 25 0 63 -41 63 -69 0 -25 -2 -27 -17 -15 -9 8 -14 9 -10 2 4 -6 2 -13 -4
-15 -8 -3 -7 -13 5 -35 16 -32 15 -35 -17 -46 -11 -4 -16 -3 -12 3 4 6 -1 7
-11 3 -16 -6 -16 -7 0 -18 15 -11 15 -13 -4 -18 -11 -3 -23 -1 -26 4 -10 16
-35 10 -32 -8 2 -14 -4 -17 -32 -17 -20 0 -40 -7 -47 -15 -11 -14 -12 -14 -13
0 0 23 -40 33 -40 11 -1 -15 -2 -15 -11 1 -6 9 -14 15 -19 12 -5 -3 -24 2 -42
11 -22 11 -33 13 -36 5 -4 -13 -32 -15 -32 -3 0 5 -7 9 -15 9 -8 0 -15 -4 -15
-8 0 -5 -6 -6 -14 -3 -8 3 -23 1 -33 -6 -16 -10 -16 -10 4 -5 20 6 21 4 13
-26 -5 -18 -7 -35 -5 -38 3 -2 5 2 5 10 0 8 6 4 16 -9 16 -24 37 -21 27 3 -3
10 -1 13 9 10 7 -3 15 -15 15 -27 1 -12 7 -24 13 -28 7 -4 11 -10 11 -14 -3
-22 2 -27 22 -26 37 3 47 1 47 -14 0 -15 41 -24 120 -28 42 -1 45 -3 45 -28 0
-17 -5 -26 -11 -23 -7 2 -9 14 -6 25 3 14 1 19 -6 14 -7 -4 -12 -21 -12 -37 0
-17 4 -28 8 -25 5 3 6 -8 4 -25 -3 -24 -1 -28 12 -23 9 3 16 1 16 -6 0 -6 -5
-8 -10 -5 -8 5 -9 -10 -4 -44 4 -35 3 -51 -5 -51 -6 0 -11 -5 -11 -11 0 -5 4
-7 10 -4 6 4 8 -7 4 -27 -4 -25 -3 -29 5 -18 7 10 11 11 11 3 0 -7 5 -13 11
-13 11 0 6 80 -7 114 -6 17 5 21 22 9 5 -5 2 -1 -7 7 -15 15 -14 17 8 27 19 9
22 9 14 0 -6 -8 -6 -18 -1 -27 11 -17 3 -33 -12 -24 -8 5 -9 -1 -5 -17 4 -13
7 -33 7 -44 0 -17 2 -18 11 -5 8 12 10 9 6 -12 -5 -34 0 -36 13 -5 7 17 9 18
9 5 1 -19 12 -22 79 -19 47 3 62 -23 16 -27 -15 -1 -33 -7 -41 -13 -7 -7 -16
-9 -19 -6 -3 2 -28 -1 -56 -9 -28 -7 -55 -11 -60 -8 -4 3 -8 -3 -8 -14 0 -17
8 -21 51 -23 11 0 14 -8 11 -30 -2 -16 -8 -29 -13 -29 -17 0 -9 -17 9 -18 39
-4 136 -1 144 4 4 3 8 0 8 -5 0 -6 -3 -11 -6 -11 -4 0 -50 -7 -103 -16 -61
-11 -100 -23 -108 -33 -11 -15 -12 -14 -13 2 0 22 -9 22 -30 -3 -18 -21 -39
-23 -53 -5 -5 6 -5 0 -2 -12 4 -14 2 -23 -4 -23 -6 0 -11 4 -11 8 0 5 -7 9
-15 9 -10 0 -12 -4 -5 -12 8 -9 -2 -16 -37 -26 -27 -7 -64 -14 -84 -14 -19 -1
-41 -5 -47 -9 -7 -4 -12 -2 -12 5 0 8 -4 9 -13 1 -7 -6 -31 -10 -53 -8 l-39 4
3 67 c2 55 0 70 -15 82 -10 8 -12 12 -5 8 9 -5 12 13 12 72 0 43 3 96 7 117 4
28 3 37 -5 32 -8 -5 -10 -2 -6 8 3 9 10 16 14 16 4 0 7 10 7 23 0 24 2 31 44
125 15 34 29 66 30 70 2 4 9 13 16 21 16 15 13 47 -4 44 -7 -2 -27 4 -45 11
-63 25 -86 28 -92 9 -3 -10 -4 -6 -2 10 2 15 0 27 -5 27 -4 0 -29 -28 -55 -62
-67 -89 -153 -188 -260 -298 -51 -52 -103 -108 -117 -125 -35 -42 -117 -125
-166 -167 -38 -33 -43 -42 -51 -99 -5 -35 -10 -67 -10 -71 0 -5 -9 -8 -19 -8
-15 0 -21 10 -26 40 -7 41 -19 58 -30 40 -3 -5 0 -10 7 -10 8 0 9 -3 3 -8 -5
-4 -11 -14 -11 -22 -1 -8 -3 -24 -5 -35 -3 -16 2 -21 30 -23 36 -4 105 -44 94
-55 -3 -4 11 -7 33 -8 31 0 35 -2 19 -9 -19 -8 -19 -9 2 -9 12 -1 48 -7 80
-15 56 -14 320 -43 433 -48 57 -2 66 -4 166 -37 33 -12 87 -25 120 -30 32 -5
100 -17 149 -25 97 -17 267 -35 382 -41 l72 -3 12 35 c6 20 24 55 40 78 34 50
34 52 13 94 -11 21 -14 45 -11 69 5 30 2 41 -28 74 -57 63 -43 124 48 201 48
41 110 77 133 77 7 0 -75 -80 -119 -115 -30 -24 -57 -76 -57 -107 0 -32 24
-64 54 -72 13 -3 33 -22 45 -42 26 -43 26 -44 1 -44 -22 0 -25 -7 -11 -29 5
-8 18 -12 30 -8 35 9 33 -9 -4 -42 -20 -17 -40 -42 -45 -55 -9 -23 -7 -24 23
-19 23 3 37 0 46 -10 10 -13 6 -22 -28 -56 -22 -22 -47 -53 -55 -69 -14 -27
-14 -31 4 -47 11 -10 20 -23 20 -28 0 -23 -47 -77 -83 -97 -47 -27 -85 -27
-161 -1 -75 26 -96 26 -143 -1 -78 -44 -105 -87 -82 -129 11 -21 110 -70 179
-89 22 -6 40 -14 40 -18 -1 -4 -18 -19 -40 -34 -38 -26 -40 -27 -50 -9 -11 22
-53 37 -125 46 -27 3 -102 27 -167 52 -119 47 -148 49 -148 13 0 -18 -3 -19
-21 -10 -11 7 -32 9 -45 6 -21 -6 -24 -12 -24 -51 0 -25 12 -79 26 -122 19
-56 24 -89 20 -119 -7 -54 3 -62 124 -104 52 -18 107 -39 121 -46 15 -7 29
-11 32 -8 3 3 15 -1 27 -8 27 -16 95 -79 84 -77 -22 4 -34 -2 -34 -17 0 -8 5
-12 10 -9 6 3 10 2 10 -3 0 -5 -11 -14 -25 -20 -25 -12 -34 -32 -14 -32 21 0
-2 -18 -31 -23 -24 -5 -30 -12 -30 -32 0 -21 -5 -25 -29 -25 -17 0 -33 -5 -37
-11 -4 -8 -9 -7 -16 2 -7 11 -11 11 -15 2 -2 -7 -13 -13 -24 -13 -10 0 -19 -4
-19 -9 0 -5 -13 -12 -30 -16 -28 -6 -70 -50 -70 -73 0 -5 -10 -10 -22 -10 -28
0 -130 -30 -106 -31 19 -1 14 -40 -6 -42 -30 -2 -61 -11 -74 -21 -12 -10 -12
-13 3 -18 18 -6 5 -15 -64 -41 -19 -7 -58 -37 -87 -66 -30 -29 -62 -53 -73
-53 -15 0 -21 -9 -26 -40 -6 -36 -10 -40 -35 -40 -22 0 -29 -5 -32 -23 -2 -14
-9 -21 -21 -21 -10 1 -17 -5 -17 -17 0 -12 -7 -19 -18 -19 -10 0 -26 -14 -37
-32 -10 -18 -20 -27 -23 -20 -5 16 -22 5 -22 -14 0 -8 9 -14 20 -14 11 0 20
-5 20 -11 0 -6 -9 -8 -20 -4 -12 4 -20 2 -20 -5 0 -6 -13 -16 -30 -21 -16 -6
-30 -14 -30 -18 0 -4 -43 -50 -95 -103 -52 -53 -95 -101 -95 -107 0 -6 -11
-17 -25 -23 -14 -6 -25 -18 -25 -26 0 -7 -9 -16 -20 -19 -11 -3 -20 -11 -20
-18 0 -6 -9 -20 -20 -30 -18 -16 -20 -16 -20 -2 0 10 -5 17 -11 17 -15 0 -52
-21 -64 -36 -5 -7 -29 -22 -52 -34 -37 -19 -52 -21 -118 -15 -41 4 -75 11 -75
16 0 5 -9 9 -20 9 -11 0 -23 7 -26 15 -4 8 -18 15 -33 15 -14 1 -42 14 -61 30
-19 17 -38 30 -42 30 -10 0 -93 81 -104 103 -6 9 -40 48 -77 86 -37 38 -67 74
-67 80 0 5 -11 18 -25 29 -14 11 -25 29 -25 39 0 11 -13 32 -30 48 -16 16 -30
35 -30 42 0 7 -6 13 -13 13 -19 0 -75 60 -56 60 8 0 -3 8 -25 18 -21 9 -38 21
-37 25 1 4 -1 7 -4 7 -13 0 -45 42 -45 59 0 11 -5 23 -10 26 -6 4 -22 24 -36
46 -13 22 -29 37 -34 34 -5 -3 -17 6 -27 21 -10 14 -39 50 -65 80 -27 30 -48
60 -48 68 0 7 -14 28 -31 46 l-31 32 17 53 c22 62 16 89 -27 138 -18 20 -50
57 -71 81 -40 46 -80 64 -102 46 -9 -8 -14 -8 -17 1 -2 6 -19 12 -38 14 -19 2
-38 3 -42 4 -11 1 -10 48 0 55 9 6 91 -18 147 -43 178 -80 336 -55 378 61 8
22 -27 66 -56 70 -16 2 -23 12 -27 33 -5 27 -17 36 -129 91 -104 52 -135 73
-188 127 -35 36 -63 69 -63 75 0 17 35 23 65 12 14 -5 31 -7 37 -4 18 11 1 82
-27 116 -27 34 -34 39 -129 98 -76 47 -72 63 20 71 52 4 78 11 99 27 15 12 34
22 41 22 16 0 34 31 34 60 0 35 -57 135 -96 170 -41 36 -108 69 -139 70 -11 0
-27 5 -35 11 -19 13 79 3 130 -14 51 -17 133 -70 158 -103 12 -16 25 -33 29
-39 5 -5 14 -23 21 -39 7 -16 16 -26 19 -22 3 3 12 1 20 -5 9 -9 13 -8 13 0 0
7 9 9 23 6 13 -4 68 -1 123 5 123 13 127 14 140 22 6 4 28 8 48 10 21 1 40 6
42 10 3 4 16 8 29 8 26 0 89 38 92 55 1 6 25 15 53 20 28 6 49 13 46 16 -9 9
-16 312 -16 699 1 443 0 420 10 420 5 0 11 8 15 19 16 50 134 143 196 154 82
15 118 20 168 22 31 2 94 6 141 9 64 5 106 2 173 -12 105 -22 111 -14 40 58
-138 137 -310 189 -519 155 -94 -16 -159 -44 -241 -108 -126 -96 -178 -181
-193 -316 -5 -45 -10 -280 -11 -522 -1 -325 -4 -439 -12 -439 -7 0 -6 -5 3
-11 11 -8 12 -12 3 -16 -15 -6 -17 -33 -3 -33 6 0 5 -10 -2 -25 -6 -14 -12
-24 -14 -22 -16 16 -23 154 -28 579 -2 174 -7 322 -11 327 -3 6 -2 11 4 11 6
0 7 8 3 21 -5 12 -5 44 -1 72 3 29 5 73 4 100 -1 26 2 47 7 47 4 0 7 3 6 8 -8
36 53 158 109 219 24 25 43 50 43 55 0 5 4 7 8 4 5 -3 18 4 30 14 12 11 26 20
32 20 5 0 10 5 10 10 0 6 3 9 8 8 4 -1 32 10 63 24 113 51 176 65 314 68 95 3
300 -51 313 -82 2 -5 10 -8 18 -8 27 0 174 -143 174 -169 0 -5 13 -23 30 -40
28 -31 31 -32 87 -26 32 4 110 18 174 31 145 29 253 34 294 11 41 -23 75 -53
75 -67 0 -7 7 -10 16 -6 14 5 16 1 10 -25 -3 -17 -6 -38 -6 -45 0 -8 -7 -14
-15 -14 -8 0 -15 -7 -15 -15 0 -8 -5 -15 -12 -15 -8 0 -7 -4 3 -12 8 -7 13
-12 10 -11 -2 1 -10 -5 -19 -14 -14 -14 -18 -12 -41 14 -14 17 -42 41 -61 54
-61 41 -94 99 -71 122 35 35 -27 35 -169 2 -58 -14 -136 -28 -173 -31 l-68 -7
6 -28 c3 -16 8 -44 12 -61 4 -18 6 -39 4 -47 -1 -7 1 -11 6 -8 7 4 8 -106 3
-208 -3 -40 9 -167 15 -173 22 -22 316 103 665 281 l65 33 5 85 c5 88 31 149
67 164 15 5 12 9 -14 26 -42 27 -90 100 -109 168 -28 94 -9 218 30 194 5 -3 6
-1 2 5 -11 17 11 50 36 55 42 8 66 7 117 -5z m-6379 -20 c0 -6 -6 -5 -15 2 -8
7 -15 14 -15 16 0 2 7 1 15 -2 8 -4 15 -11 15 -16z m8656 -64 c-4 -9 -9 -15
-11 -12 -3 3 -3 13 1 22 4 9 9 15 11 12 3 -3 3 -13 -1 -22z m-6091 -4 c3 -5 1
-10 -4 -10 -6 0 -11 5 -11 10 0 6 2 10 4 10 3 0 8 -4 11 -10z m-2525 -20 c0
-5 -5 -10 -11 -10 -5 0 -7 5 -4 10 3 6 8 10 11 10 2 0 4 -4 4 -10z m2549 -16
c-17 -21 -31 -17 -17 5 7 11 16 17 20 14 5 -2 4 -11 -3 -19z m-39 -12 c0 -4
-10 -13 -22 -21 -23 -14 -23 -14 -4 8 20 22 26 25 26 13z m435 -33 c50 -24 96
-90 101 -143 3 -28 2 -35 -4 -22 -14 32 -22 2 -11 -39 10 -36 8 -41 -29 -95
l-40 -56 7 -87 c8 -106 23 -129 117 -178 48 -25 70 -42 72 -58 2 -15 11 -21
27 -21 38 0 78 -19 115 -55 34 -33 36 -33 81 -22 25 7 53 20 63 30 19 19 39
21 64 8 9 -4 45 -11 80 -14 60 -5 62 -4 62 18 0 30 16 41 28 19 6 -11 11 -13
16 -5 11 17 34 13 39 -6 4 -15 6 -15 12 5 8 24 43 30 63 10 9 -9 18 -9 37 0
23 11 26 9 35 -14 6 -14 13 -49 16 -79 l6 -53 -68 -15 c-38 -8 -95 -21 -126
-27 -56 -11 -70 -22 -48 -35 6 -4 8 -10 5 -15 -3 -4 3 -6 14 -3 10 3 22 0 25
-6 4 -7 1 -8 -8 -5 -14 6 -21 -10 -17 -38 0 -4 -6 -5 -14 -2 -8 3 -22 -1 -30
-10 -23 -22 -63 -31 -94 -20 -22 8 -25 15 -23 41 4 41 -18 48 -98 32 -55 -11
-60 -14 -60 -38 0 -15 -13 -48 -29 -73 -25 -40 -37 -48 -93 -66 -34 -12 -104
-28 -154 -37 -80 -15 -94 -20 -113 -46 -29 -39 -60 -53 -202 -94 -123 -36
-260 -48 -274 -25 -3 6 -15 10 -26 10 -41 0 -98 51 -129 114 -17 33 -31 73
-32 89 -1 15 -5 27 -9 27 -4 0 -6 15 -5 33 4 45 5 47 16 47 6 0 6 -9 0 -25 -6
-15 -6 -26 0 -30 6 -4 10 6 10 20 0 15 4 24 10 20 6 -3 7 1 4 9 -6 15 6 21 30
17 5 -1 4 5 -3 13 -12 14 -10 15 17 5 20 -7 41 -7 63 0 28 8 30 9 10 10 -13 1
-21 4 -18 8 4 3 2 11 -3 18 -7 8 -3 15 15 23 14 6 25 16 25 22 0 5 7 10 15 10
9 0 12 6 9 15 -4 8 -15 15 -26 15 -11 0 -28 4 -38 10 -13 7 -24 4 -44 -11
l-26 -20 0 23 c0 13 -6 30 -12 37 -11 10 -10 11 3 6 10 -4 20 -2 23 3 3 5 0
10 -7 9 -33 -1 -45 5 -50 23 -4 14 -13 20 -34 20 -22 0 -25 -2 -13 -10 12 -8
10 -10 -8 -10 -13 0 -20 4 -17 10 7 12 -12 50 -26 50 -6 0 -3 -7 5 -16 20 -20
20 -24 -1 -24 -9 0 -14 3 -10 6 3 4 -5 22 -20 40 -14 19 -22 34 -19 34 4 0 2
9 -4 21 -10 17 -14 18 -27 7 -13 -10 -13 -8 1 15 10 15 25 27 32 27 8 0 14 9
14 19 0 18 26 30 75 36 19 2 63 -24 69 -42 5 -15 4 -15 -10 2 -16 19 -16 19
-9 -5 4 -14 14 -29 22 -33 7 -5 10 -13 7 -19 -5 -7 2 -9 22 -4 42 10 123 13
118 5 -2 -4 3 -10 12 -13 8 -3 13 -2 10 3 -3 5 8 14 26 20 39 14 47 14 28 0
-12 -9 -11 -10 8 -6 14 3 26 -1 32 -11 13 -24 12 -5 -1 20 -10 18 -9 20 5 15
9 -4 16 -2 16 3 0 5 9 8 20 7 16 -1 19 -8 17 -42 -2 -22 -8 -41 -15 -41 -25
-3 -27 -5 -12 -14 23 -15 40 -12 34 5 -4 8 -1 15 5 15 8 0 9 5 2 19 -9 16 -8
18 9 14 21 -6 90 22 90 36 0 5 9 11 20 14 13 3 20 0 20 -9 0 -8 -8 -14 -17
-14 -14 0 -13 -3 5 -16 13 -9 26 -13 30 -9 3 3 0 10 -7 15 -11 6 -9 11 8 21
11 8 21 19 21 26 0 7 7 13 15 13 8 0 15 4 15 9 0 5 -13 9 -30 9 -32 -1 -37 -7
-18 -26 7 -7 8 -12 2 -12 -6 0 -16 10 -22 23 -9 18 -11 19 -11 4 -1 -10 -5
-16 -11 -12 -5 3 -7 12 -4 20 6 14 -12 21 -67 28 -15 1 -34 9 -43 16 -9 7 -16
10 -16 6 0 -5 -9 0 -20 10 -28 25 -25 35 8 26 15 -4 54 -9 87 -10 33 -2 62 -4
66 -7 3 -2 29 2 56 9 54 14 93 46 93 76 0 19 -2 19 -37 5 -38 -16 -31 -17
-228 21 -65 13 -60 5 -65 95 -5 65 10 133 35 172 14 21 29 37 33 36 4 -1 23 6
42 14 19 9 46 21 60 26 24 10 23 11 -12 11 -40 1 -88 -16 -88 -31 0 -5 -5 -6
-10 -3 -14 9 5 41 35 61 72 47 151 52 230 13z m622 4 c-4 -3 3 -14 16 -22 32
-21 165 -169 183 -203 16 -31 8 -63 -25 -92 -27 -25 -34 -17 -16 18 12 22 12
33 3 49 -18 35 -51 78 -88 116 -80 82 -112 141 -78 141 6 0 8 -3 5 -7z m4485
-29 c50 -16 92 -54 71 -61 -7 -3 -23 -13 -35 -24 -19 -15 -21 -20 -9 -28 25
-16 -32 -37 -62 -24 -13 6 -30 7 -37 3 -7 -4 -19 -6 -27 -3 -7 3 -16 -2 -19
-11 -3 -9 -13 -16 -21 -16 -8 0 -11 -4 -8 -10 6 -9 -17 -13 -70 -12 -17 1 -17
0 -2 -4 29 -9 19 -25 -10 -18 -25 7 -27 6 -14 -9 12 -15 11 -17 -10 -15 -18 2
-23 -1 -21 -14 2 -10 -2 -18 -8 -18 -5 0 -10 -7 -10 -16 0 -13 3 -14 14 -5 11
10 16 9 23 -3 4 -8 20 -16 35 -18 15 -2 41 -21 62 -43 33 -38 34 -40 13 -43
-32 -4 -81 -24 -89 -36 -13 -18 -8 -32 5 -15 36 46 111 53 148 12 19 -21 20
-25 6 -20 -17 6 -17 5 -1 -22 15 -26 16 -32 3 -47 -9 -11 -9 -15 -1 -10 6 4
12 3 12 -3 0 -5 -5 -11 -11 -13 -6 -2 5 -16 25 -31 28 -22 36 -35 36 -61 0
-17 5 -37 11 -43 8 -8 2 -20 -20 -42 -24 -25 -30 -38 -26 -59 3 -15 2 -21 -1
-13 -4 9 -9 10 -13 2 -4 -6 -30 -13 -58 -17 -49 -6 -53 -4 -82 28 -17 18 -31
38 -31 44 0 6 -29 39 -66 74 -62 59 -64 64 -55 92 6 17 6 26 1 23 -6 -4 -10
10 -10 32 0 28 -3 34 -10 23 -9 -13 -11 -13 -20 0 -24 36 7 137 55 179 20 17
30 31 24 31 -8 0 -8 5 1 16 11 13 10 16 -8 20 -11 4 -23 13 -27 22 -7 18 40
89 65 97 10 3 25 17 34 30 9 14 24 25 34 25 9 0 32 16 51 35 30 31 70 51 107
54 6 1 31 -6 56 -15z m1348 -1 c0 -12 22 -28 70 -50 39 -18 70 -37 70 -42 0
-6 -7 -7 -17 -4 -10 4 -14 2 -10 -4 4 -6 -1 -10 -11 -9 -9 0 -16 -5 -14 -11 1
-7 -4 -13 -10 -13 -9 0 -8 -4 2 -10 12 -8 12 -10 -5 -10 -17 0 -17 -2 -5 -10
13 -9 13 -10 0 -10 -11 0 -9 -4 5 -12 11 -6 22 -14 25 -18 7 -9 43 -24 53 -22
4 1 7 -3 7 -8 0 -5 -3 -10 -7 -11 -5 0 -18 -2 -30 -3 -13 -2 -23 0 -23 3 0 3
-18 7 -39 8 -35 1 -38 -1 -34 -20 3 -15 2 -18 -4 -9 -7 9 -13 6 -22 -14 -8
-18 -9 -30 -2 -37 7 -7 0 -19 -20 -37 -36 -34 -42 -85 -9 -75 13 4 31 0 47
-10 25 -17 27 -17 45 6 l19 24 17 -25 c9 -13 24 -31 32 -40 29 -29 56 -75 76
-125 30 -79 28 -85 -22 -85 -32 0 -44 -4 -44 -15 0 -8 4 -15 10 -15 24 0 -6
-30 -36 -36 -19 -3 -37 -10 -40 -15 -3 -5 -10 -7 -15 -4 -9 6 -29 -36 -32 -66
0 -8 -12 -24 -25 -34 l-25 -18 5 27 c4 20 2 24 -5 17 -6 -6 -19 -11 -29 -11
-10 0 -18 -2 -18 -4 0 -2 -3 -13 -7 -23 -6 -16 -5 -16 10 -4 15 12 17 11 17
-5 0 -16 2 -17 10 -4 7 11 10 11 10 2 0 -29 -24 -108 -38 -124 -13 -16 -10
-22 10 -19 3 0 4 -21 2 -47 -5 -46 -30 -82 -59 -82 -19 0 -37 48 -25 70 5 10
7 27 4 37 -4 13 -3 14 3 5 7 -10 14 -7 29 10 12 15 13 18 3 10 -14 -10 -18
-10 -24 5 -11 30 -14 72 -5 78 5 3 12 30 15 60 5 34 14 59 24 66 14 9 14 10
-3 5 -15 -5 -17 -2 -12 19 4 14 4 25 1 25 -11 0 -70 -32 -88 -48 -9 -8 -20
-13 -23 -10 -3 3 24 24 60 47 38 23 76 57 90 79 24 38 52 66 72 73 7 3 -4 31
-28 74 -51 88 -79 173 -74 228 2 23 1 30 -1 14 -2 -15 -9 -25 -14 -22 -11 8
-2 48 22 97 l19 37 -39 43 c-72 78 -59 150 30 156 24 2 48 7 54 13 14 14 25
11 25 -8z m-5970 -8 c-7 -9 -15 -13 -17 -11 -7 7 7 26 19 26 6 0 6 -6 -2 -15z
m-950 -19 c0 -2 -7 -7 -16 -10 -8 -3 -12 -2 -9 4 6 10 25 14 25 6z m923 -2
c11 -4 7 -13 -16 -40 -17 -18 -37 -34 -44 -34 -7 0 -13 -7 -13 -15 0 -8 -9
-20 -20 -27 -11 -7 -20 -18 -20 -25 0 -7 -7 -13 -16 -13 -10 0 -14 -6 -11 -14
3 -8 -5 -24 -17 -35 -20 -19 -24 -20 -29 -7 -4 9 -2 16 3 16 6 0 9 6 8 13 -2
6 3 11 10 10 6 -2 12 3 12 10 0 7 9 19 20 27 11 8 20 20 20 27 0 7 5 13 10 13
6 0 18 16 27 35 9 19 25 37 35 41 10 3 18 10 18 15 0 11 3 11 23 3z m3181 -10
c9 -24 7 -28 -9 -14 -17 14 -20 30 -6 30 5 0 12 -7 15 -16z m-6514 -44 c0 -5
-4 -10 -9 -10 -6 0 -13 5 -16 10 -3 6 1 10 9 10 9 0 16 -4 16 -10z m2435 -42
c4 -3 2 -9 -3 -12 -5 -3 -15 1 -21 8 -10 11 -9 14 3 12 9 -1 18 -5 21 -8z
m5500 -18 c3 -5 -1 -10 -10 -10 -9 0 -13 5 -10 10 3 6 8 10 10 10 2 0 7 -4 10
-10z m110 -11 c11 -17 2 -18 -25 -4 -24 14 -24 14 -3 15 12 0 25 -5 28 -11z
m-5630 -18 c-3 -6 -11 -11 -17 -11 -6 0 -6 6 2 15 14 17 26 13 15 -4z m5562
13 c-3 -3 -12 -4 -19 -1 -8 3 -5 6 6 6 11 1 17 -2 13 -5z m-7048 -38 c32 -17
52 -35 61 -56 14 -34 54 -70 78 -70 27 0 52 -32 52 -66 0 -29 -4 -35 -32 -43
-18 -5 -27 -10 -21 -10 7 -1 20 -15 29 -32 13 -26 13 -36 3 -60 -7 -18 -9 -48
-6 -74 5 -37 4 -45 -9 -45 -33 0 -54 20 -54 54 0 39 -5 45 -31 39 -13 -4 -19
-15 -20 -37 l-2 -31 -4 30 c-3 17 -12 38 -21 48 -14 16 -14 19 -2 27 20 13 34
12 49 -2 10 -11 10 -8 0 15 -9 20 -19 27 -40 27 -15 0 -30 4 -33 9 -10 16 21
32 73 38 28 3 54 9 57 14 8 13 -36 31 -90 36 -92 8 -99 9 -113 29 -8 10 -18
18 -22 17 -47 -12 -136 -20 -153 -14 -16 6 -7 11 43 24 35 9 81 19 101 22 51
8 56 23 11 31 -21 4 -40 6 -42 5 -2 -2 -7 3 -11 9 -8 13 -67 23 -128 23 -46 1
-27 15 55 43 91 31 160 31 222 0z m8546 -6 c3 -5 2 -10 -4 -10 -5 0 -13 5 -16
10 -3 6 -2 10 4 10 5 0 13 -4 16 -10z m-1715 -66 c0 -2 -7 -4 -15 -4 -8 0 -15
4 -15 10 0 5 7 7 15 4 8 -4 15 -8 15 -10z m-4146 -76 c-61 -68 -74 -81 -74
-73 0 8 60 87 75 97 26 19 26 5 -1 -24z m2983 0 c-3 -8 -6 -5 -6 6 -1 11 2 17
5 13 3 -3 4 -12 1 -19z m-5947 -2 c0 -3 -4 -8 -10 -11 -5 -3 -10 -1 -10 4 0 6
5 11 10 11 6 0 10 -2 10 -4z m5342 -79 c-5 -23 -20 -37 -37 -37 -5 1 -2 7 8
14 9 7 17 23 17 35 0 12 4 20 9 17 5 -3 7 -16 3 -29z m628 3 c0 -5 -2 -10 -4
-10 -3 0 -8 5 -11 10 -3 6 -1 10 4 10 6 0 11 -4 11 -10z m-6520 -15 c0 -8 -4
-15 -10 -15 -5 0 -7 7 -4 15 4 8 8 15 10 15 2 0 4 -7 4 -15z m3411 -31 c-11
-15 -21 -24 -21 -20 0 12 33 57 37 52 3 -3 -4 -17 -16 -32z m-3411 -14 c0 -5
-4 -10 -10 -10 -5 0 -10 5 -10 10 0 6 5 10 10 10 6 0 10 -4 10 -10z m5910 0
c0 -5 -4 -10 -9 -10 -6 0 -13 5 -16 10 -3 6 1 10 9 10 9 0 16 -4 16 -10z m-50
-20 c0 -5 10 -19 23 -31 l22 -21 -22 11 c-25 13 -50 51 -33 51 5 0 10 -4 10
-10z m40 -10 c0 -5 -4 -10 -10 -10 -5 0 -10 5 -10 10 0 6 5 10 10 10 6 0 10
-4 10 -10z m-4967 -180 c19 -37 7 -56 -63 -99 -31 -19 -52 -40 -56 -56 -7 -29
3 -94 18 -113 6 -7 7 -16 3 -20 -4 -4 -10 -1 -12 6 -3 6 -9 12 -14 12 -6 0 -7
-22 -5 -52 5 -49 5 -50 -6 -20 -13 39 -31 43 -22 5 7 -25 6 -27 -9 -14 -16 12
-16 10 -11 -31 6 -43 5 -45 -25 -57 -16 -7 -33 -22 -36 -32 -4 -10 -10 -19
-15 -19 -29 0 -12 105 21 131 13 10 27 19 32 19 4 0 7 7 7 15 0 9 11 20 24 25
16 6 24 16 23 30 -1 23 -17 28 -17 6 0 -8 -4 -17 -9 -21 -5 -3 -8 7 -7 22 2
15 11 30 22 34 29 12 8 10 -42 -2 -35 -9 -48 -9 -57 1 -9 10 -9 14 1 17 6 3
12 18 12 34 0 22 -5 29 -20 29 -11 0 -20 2 -20 4 0 2 -2 11 -5 18 -4 9 2 14
15 15 11 1 42 20 68 42 27 23 51 41 55 41 3 0 32 16 63 34 32 19 61 33 65 30
4 -2 14 -18 22 -34z m6313 -37 c16 -16 40 -36 54 -46 14 -10 21 -17 15 -15 -5
2 -25 10 -42 17 -19 7 -30 18 -26 24 3 5 1 7 -5 3 -5 -3 -12 -1 -14 6 -3 8 -7
6 -11 -5 -4 -11 -1 -17 7 -17 17 0 41 -50 23 -50 -6 -1 -2 -9 11 -19 12 -11
22 -24 22 -30 0 -6 7 -11 15 -11 16 0 21 -35 5 -45 -5 -3 -7 -12 -4 -19 3 -8
0 -17 -7 -22 -8 -4 -10 -3 -5 4 4 7 1 12 -6 12 -7 0 -43 20 -80 45 -92 61
-120 120 -82 173 23 34 92 31 130 -5z m614 -38 c0 -8 -2 -15 -4 -15 -2 0 -6 7
-10 15 -3 8 -1 15 4 15 6 0 10 -7 10 -15z m-5723 -11 c-3 -3 -12 -4 -19 -1 -8
3 -5 6 6 6 11 1 17 -2 13 -5z m5493 -64 c0 -5 -2 -10 -4 -10 -3 0 -8 5 -11 10
-3 6 -1 10 4 10 6 0 11 -4 11 -10z m1387 -6 c-3 -3 -12 -4 -19 -1 -8 3 -5 6 6
6 11 1 17 -2 13 -5z m-63 -49 c3 -8 1 -15 -4 -15 -6 0 -10 6 -11 13 0 9 -2 8
-6 -1 -6 -17 -87 -52 -116 -52 -16 1 -12 6 18 20 22 10 47 20 55 22 8 2 21 9
28 16 18 16 29 15 36 -3z m-1335 -41 c-6 -8 -9 -23 -6 -34 3 -13 1 -18 -5 -13
-7 4 -8 1 -2 -8 12 -20 14 -39 3 -39 -5 0 -9 -8 -9 -17 0 -15 2 -16 10 -3 9
13 14 7 11 -12 0 -5 15 -8 35 -8 21 0 33 -4 29 -10 -3 -5 -1 -18 5 -27 7 -12
10 -13 7 -3 -7 23 11 49 30 45 10 -1 17 -10 16 -20 -1 -11 2 -14 9 -7 15 15 5
47 -15 44 -18 -3 -23 21 -11 53 9 22 57 45 82 38 24 -6 29 -40 12 -74 -8 -15
-7 -23 5 -35 44 -45 -23 -113 -88 -88 -9 3 -13 17 -11 40 2 34 -8 45 -22 22
-5 -7 -3 -8 5 -3 10 6 11 3 2 -14 -7 -12 -9 -27 -6 -34 7 -13 -22 21 -33 39
-4 6 -17 14 -28 18 -19 6 -21 3 -16 -19 3 -20 7 -23 18 -14 11 9 14 8 14 -4 0
-8 -3 -23 -6 -32 -5 -13 -8 -14 -15 -3 -6 9 -9 7 -9 -9 0 -12 5 -25 10 -28 6
-3 10 -1 10 4 0 6 5 11 10 11 6 0 10 -7 10 -16 0 -14 2 -15 17 -3 11 10 14 10
9 2 -4 -7 -4 -13 1 -14 4 0 18 -2 31 -5 12 -2 22 1 22 7 0 8 4 8 14 0 11 -10
17 -8 26 6 10 16 11 16 6 1 -3 -10 -1 -18 5 -18 6 0 7 -6 4 -12 -4 -7 1 -4 9
6 14 17 16 18 16 3 0 -9 5 -16 11 -15 6 2 14 -3 16 -10 5 -13 -18 -13 -28 0
-3 5 -14 1 -25 -7 -17 -13 -17 -14 -1 -15 21 0 21 -7 1 -40 l-15 -25 6 25 c5
21 4 22 -5 7 -16 -25 -5 -35 35 -32 20 1 38 -2 41 -7 3 -5 12 -4 20 3 11 9 14
8 15 -2 0 -8 4 -5 9 6 l9 20 0 -20 c1 -17 3 -17 11 -5 9 13 10 13 10 0 0 -13
1 -13 10 0 6 9 10 10 10 3 0 -8 13 -11 35 -9 26 3 35 0 35 -12 0 -8 -2 -13 -6
-10 -3 3 -21 2 -40 -2 -23 -5 -34 -4 -34 4 0 7 -3 6 -9 -2 -5 -8 -29 -14 -59
-15 -28 0 -50 -2 -48 -5 4 -3 68 -13 95 -15 10 0 10 -3 -3 -12 -9 -7 -16 -18
-17 -26 0 -8 -4 -5 -9 6 -5 11 -9 14 -9 7 -1 -7 -5 -11 -10 -7 -5 3 -13 0 -17
-6 -4 -7 -3 -9 4 -5 6 3 13 2 16 -3 6 -9 -85 -7 -131 3 -13 3 -23 0 -23 -5 0
-6 -4 -8 -9 -4 -5 3 -12 1 -16 -5 -3 -5 -28 -12 -55 -16 -48 -6 -58 -13 -43
-28 4 -3 8 -14 9 -22 2 -14 0 -14 -16 1 -12 11 -20 13 -25 5 -3 -5 -10 -8 -15
-5 -15 9 -20 -12 -6 -24 10 -8 16 -9 21 -1 8 13 25 13 25 0 0 -5 -7 -10 -16
-10 -13 0 -14 -3 -5 -13 6 -8 8 -17 4 -20 -11 -12 -21 -8 -26 11 -3 9 -5 2 -6
-15 -1 -23 4 -33 14 -33 8 0 15 -4 15 -10 0 -5 15 -10 33 -10 18 0 58 -4 88
-10 30 -5 117 -12 194 -14 77 -3 147 -6 155 -6 13 -1 13 -2 -1 -10 -19 -11
-258 -16 -349 -7 -36 4 -99 9 -140 12 -86 6 -177 28 -197 48 -11 11 -11 18 2
43 8 17 20 66 26 110 27 194 54 259 127 304 29 17 42 32 42 48 0 12 4 22 9 22
5 0 7 9 4 19 -3 11 0 36 7 56 6 19 12 55 12 79 0 38 2 43 19 39 15 -4 17 -8 8
-19z m51 16 c0 -5 -2 -10 -4 -10 -3 0 -8 5 -11 10 -3 6 -1 10 4 10 6 0 11 -4
11 -10z m-1230 -32 c0 -7 -5 -6 -13 1 -8 6 -17 8 -21 4 -4 -4 -4 0 0 10 5 14
9 15 20 6 8 -6 14 -16 14 -21z m1230 2 c0 -5 -7 -10 -16 -10 -8 0 -12 5 -9 10
3 6 10 10 16 10 5 0 9 -4 9 -10z m1105 -14 c-11 -8 -24 -12 -29 -8 -5 3 -1 9
10 13 31 12 39 10 19 -5z m-317 -22 c29 -19 28 -40 -3 -60 -14 -9 -28 -27 -31
-39 -4 -18 -12 -22 -35 -21 -35 3 -58 30 -59 72 0 68 61 91 128 48z m236 -4
c-17 -7 -20 -15 -17 -49 3 -35 0 -43 -19 -51 -37 -15 -83 -49 -83 -62 0 -24
-23 -18 -34 10 -20 49 3 89 74 127 33 18 69 33 80 33 19 1 19 0 -1 -8z m-7834
-10 c0 -5 -2 -10 -4 -10 -3 0 -8 5 -11 10 -3 6 -1 10 4 10 6 0 11 -4 11 -10z
m6840 -35 c0 -22 -4 -25 -32 -24 -22 1 -26 3 -13 6 37 9 40 23 5 24 l-35 2 35
7 c19 4 36 8 38 9 1 0 2 -10 2 -24z m-6812 -60 c-3 -3 -9 2 -12 12 -6 14 -5
15 5 6 7 -7 10 -15 7 -18z m5066 6 c3 -5 -3 -11 -13 -14 -14 -3 -18 -1 -14 9
6 16 19 18 27 5z m-5000 -52 c-3 -5 -10 -7 -15 -3 -5 3 -7 10 -3 15 3 5 10 7
15 3 5 -3 7 -10 3 -15z m5690 12 c3 -5 -1 -11 -9 -15 -9 -3 -15 0 -15 9 0 16
16 20 24 6z m2534 -48 c5 -10 8 -25 7 -33 -1 -8 -3 -25 -3 -37 -3 -33 -17 -28
-36 12 -14 28 -14 38 -4 55 16 25 25 25 36 3z m-8099 -84 c1 -4 -6 -9 -13 -12
-10 -4 -13 -1 -9 9 3 8 -1 14 -11 14 -9 0 -16 6 -16 14 0 7 -11 22 -25 32 -14
10 -25 23 -25 28 0 9 97 -74 99 -85z m-374 58 c14 -11 16 -21 11 -49 -4 -20
-13 -41 -21 -48 -8 -7 -12 -17 -9 -22 11 -17 -36 2 -57 23 -23 23 -25 41 -4
33 9 -4 15 0 15 9 0 10 -7 13 -20 10 -19 -5 -20 -3 -9 20 10 23 24 30 65 36 5
0 18 -5 29 -12z m5818 -44 c-7 -18 -33 -17 -33 1 0 8 8 14 19 13 11 0 17 -6
14 -14z m-4703 -51 c0 -20 -8 -44 -17 -55 -13 -14 -17 -31 -14 -66 7 -87 4
-128 -14 -155 -10 -14 -16 -28 -14 -30 2 -1 25 -15 51 -30 26 -14 53 -36 59
-47 6 -12 36 -45 68 -74 59 -56 134 -184 147 -252 4 -18 12 -33 20 -33 7 0 20
-18 30 -40 22 -48 32 -51 27 -7 -3 26 -1 28 6 12 5 -11 10 -14 10 -7 1 6 6 12
13 12 6 0 20 8 30 17 15 14 21 15 27 4 6 -10 13 -10 30 -2 11 6 29 15 39 20
11 5 45 12 78 16 88 10 174 35 174 51 0 8 5 14 10 14 6 0 10 -7 10 -15 0 -22
27 -18 43 6 10 14 24 20 43 18 16 -2 55 1 87 5 43 6 62 14 76 33 19 24 19 24
34 3 14 -20 15 -20 49 18 36 39 136 102 163 102 9 0 14 4 11 9 -8 13 19 32 35
26 19 -7 39 -53 39 -87 0 -25 -4 -28 -49 -34 -93 -12 -214 -119 -340 -300 -73
-105 -151 -246 -151 -274 0 -9 -18 -35 -40 -58 -22 -22 -40 -45 -40 -49 -1
-13 -37 -53 -49 -53 -6 0 -11 -5 -11 -10 0 -7 -6 -7 -19 0 -11 5 -31 10 -45
10 -18 0 -30 9 -41 30 -8 16 -15 35 -15 42 0 17 -63 88 -78 88 -24 0 -23 23 3
50 33 34 40 96 14 113 -22 14 -98 -15 -138 -52 -28 -26 -35 -28 -132 -30 -57
-1 -105 -4 -107 -6 -2 -2 -15 0 -28 5 -14 6 -24 6 -24 1 0 -5 -9 -7 -19 -4
-20 5 -24 17 -36 103 -4 25 -14 55 -22 68 -8 13 -12 30 -9 38 3 8 1 26 -4 40
-7 18 -7 31 0 39 7 9 8 15 1 19 -6 4 -8 13 -6 21 16 51 15 50 29 29 7 -10 13
-38 14 -62 1 -47 33 -111 64 -131 16 -10 31 -10 68 -1 57 14 91 46 94 92 5 64
-44 224 -74 243 -5 3 -10 15 -10 25 0 10 -13 30 -30 43 -16 14 -30 29 -30 34
0 4 -31 30 -68 57 -37 28 -77 60 -89 72 -13 13 -30 27 -39 32 -13 7 -14 15 -5
48 6 21 11 67 11 102 0 55 5 72 35 123 19 33 34 63 34 67 -3 19 2 23 16 12 8
-7 15 -28 15 -48z m-705 8 c3 -6 -4 -9 -19 -8 -13 1 -22 6 -20 10 7 11 32 10
39 -2z m6728 -13 c3 -8 -1 -14 -9 -14 -15 0 -18 9 -7 20 9 9 10 9 16 -6z m982
3 c-3 -5 -11 -10 -16 -10 -6 0 -7 5 -4 10 3 6 11 10 16 10 6 0 7 -4 4 -10z
m-2165 -4 c0 -2 -9 -6 -20 -9 -11 -3 -20 -1 -20 4 0 5 9 9 20 9 11 0 20 -2 20
-4z m-5504 -28 l19 -23 -25 20 c-14 11 -27 21 -29 22 -2 2 0 3 6 3 5 0 18 -10
29 -22z m7800 11 c-16 -4 -33 -6 -38 -3 -4 3 -8 -7 -8 -21 0 -14 -4 -24 -8
-21 -12 7 -35 -81 -29 -112 3 -15 0 -38 -7 -51 l-13 -23 -8 33 c-22 102 -17
139 24 178 21 20 40 27 72 28 40 1 41 0 15 -8z m274 -14 c-7 -8 -17 -15 -23
-15 -6 0 -2 7 9 15 25 19 30 19 14 0z m-6235 -15 c-12 -19 6 -32 19 -14 12 16
14 15 36 -2 23 -19 97 -83 153 -133 27 -25 28 -25 57 -7 47 27 35 5 -21 -39
-65 -51 -78 -56 -111 -39 -17 9 -29 10 -33 4 -4 -6 -12 -4 -22 6 -9 8 -24 13
-34 11 -26 -7 -31 6 -14 29 15 19 15 19 30 0 11 -15 15 -16 15 -5 0 8 -5 20
-12 27 -9 9 -8 12 5 12 21 0 22 16 1 24 -8 3 -12 2 -9 -4 3 -5 -3 -8 -14 -7
-15 1 -17 4 -9 14 8 10 3 13 -22 13 -19 0 -30 3 -27 7 4 3 2 12 -4 19 -8 10
-16 11 -31 3 -15 -8 -19 -8 -13 0 4 7 1 19 -6 27 -10 12 -9 13 5 8 9 -3 16
-11 17 -18 0 -6 5 2 10 18 9 33 3 48 -11 26 -6 -8 -10 -10 -10 -4 0 5 5 15 12
22 14 14 52 16 43 2z m5687 3 c-6 -2 -10 -8 -8 -12 3 -4 -1 -8 -8 -8 -8 0 -12
6 -9 14 3 7 13 13 22 12 10 0 11 -2 3 -6z m-7466 -25 c4 -7 4 -10 -1 -6 -4 4
-14 3 -22 -3 -13 -11 -19 2 -6 14 10 11 21 8 29 -5z m1334 2 c10 0 22 -10 25
-21 6 -17 9 -19 16 -8 6 11 11 11 21 1 9 -9 9 -12 -2 -12 -10 0 -7 -5 6 -13
12 -6 45 -31 75 -55 61 -50 145 -96 160 -86 6 3 26 -10 45 -30 30 -31 34 -41
33 -88 0 -58 -18 -119 -35 -125 -18 -6 -55 30 -58 58 -3 34 -32 75 -39 57 -3
-7 -5 -1 -4 15 1 15 5 27 9 27 4 0 8 5 8 11 0 5 -5 7 -12 3 -8 -5 -9 -2 -5 10
6 14 4 15 -15 5 -18 -10 -20 -9 -15 5 4 10 1 23 -5 30 -14 14 -48 10 -48 -7 0
-6 -3 -7 -6 -4 -4 4 -2 13 4 20 9 11 6 19 -12 36 -13 12 -32 24 -42 25 -11 2
-18 10 -16 20 2 9 -3 16 -9 16 -7 0 -9 -3 -6 -7 4 -3 0 -14 -9 -24 -15 -17
-15 -18 5 -14 13 2 21 -1 21 -10 0 -8 8 -19 18 -24 9 -6 13 -11 8 -11 -5 0
-18 8 -28 17 -15 14 -21 15 -27 4 -6 -9 -11 -5 -18 16 -7 18 -18 29 -31 30
-15 1 -19 -3 -15 -15 4 -13 2 -12 -10 3 -18 24 -1 41 23 22 11 -9 11 -7 -2 8
-9 11 -18 31 -21 45 l-4 25 -2 -27 c-1 -29 -16 -45 -26 -28 -3 5 -1 10 4 10 6
0 11 9 11 20 0 11 -4 20 -8 20 -4 0 -8 14 -7 30 0 21 4 29 13 25 8 -3 22 -5
32 -5z m-1955 -10 c-3 -5 -2 -10 4 -10 5 0 11 6 13 12 7 20 58 -7 58 -30 0
-10 -11 -28 -25 -40 -22 -19 -26 -20 -32 -6 -4 12 -8 13 -13 3 -12 -18 -40 -3
-40 21 0 27 17 60 31 60 6 0 7 -4 4 -10z m8055 -37 c0 -1 -8 1 -17 4 -16 6
-16 5 -4 -10 7 -9 9 -17 5 -17 -5 0 -15 -10 -23 -21 -11 -19 -11 -21 4 -16 10
4 14 3 10 -4 -4 -5 -16 -7 -27 -3 -17 5 -19 3 -13 -18 6 -19 5 -21 -6 -10 -18
17 -29 15 -29 -5 0 -14 2 -15 9 -5 7 11 9 11 14 -1 8 -21 -19 -30 -35 -12 -31
34 -38 45 -38 57 1 23 44 66 80 80 30 12 37 12 52 -1 10 -9 18 -17 18 -18z
m-6158 -8 c-4 -25 -17 -26 -17 -2 -1 9 13 26 21 27 1 0 -1 -11 -4 -25z m3588
-44 c0 -5 -6 -14 -14 -20 -10 -9 -16 -8 -26 4 -7 9 -8 15 -2 15 6 0 13 -6 15
-12 3 -8 6 -6 6 5 1 17 21 25 21 8z m-3405 -79 c-3 -3 -11 0 -18 7 -9 10 -8
11 6 5 10 -3 15 -9 12 -12z m3477 3 c30 -8 38 -24 34 -73 -4 -50 -64 -88 -123
-77 -38 7 -53 29 -53 81 0 53 31 85 79 80 20 -2 48 -7 63 -11z m451 -36 c10
-11 17 -34 17 -58 0 -77 -93 -119 -145 -66 -14 13 -25 32 -26 42 -5 88 19 116
90 107 25 -3 54 -14 64 -25z m671 5 c9 -24 7 -28 -9 -14 -17 14 -20 30 -6 30
5 0 12 -7 15 -16z m1605 -18 c0 -14 -2 -16 -6 -6 -3 8 -10 21 -16 28 -7 9 -6
11 7 6 9 -3 16 -16 15 -28z m-5741 -31 c-3 -3 -9 2 -12 12 -6 14 -5 15 5 6 7
-7 10 -15 7 -18z m5718 -33 c0 -26 -1 -39 -3 -29 -7 27 -18 20 -20 -14 -1 -18
-5 -34 -7 -37 -8 -7 -36 25 -36 40 0 10 3 9 11 -2 9 -12 10 -10 6 8 -7 28 1
54 14 47 4 -3 13 4 19 15 6 11 12 20 13 20 1 0 2 -21 3 -48z m-1527 -44 c17
-33 10 -44 -18 -28 -13 7 -21 21 -21 38 0 15 -3 38 -6 52 -6 23 -5 23 13 -5
10 -16 25 -42 32 -57z m-4919 42 c0 -11 6 -20 14 -20 9 0 12 -7 9 -20 -3 -11
0 -20 6 -20 6 0 1 -11 -11 -25 -27 -32 -36 -32 -33 0 2 14 -1 28 -6 31 -6 3
-7 15 -4 27 5 16 4 18 -3 8 -5 -7 -12 -9 -14 -5 -6 11 0 -11 8 -31 3 -8 2 -15
-2 -15 -5 0 -14 15 -20 34 -8 28 -8 33 5 33 38 0 46 4 26 13 -19 8 -19 9 3 9
16 1 22 -5 22 -19z m5883 -12 c4 -12 2 -27 -3 -33 -8 -9 -17 -41 -40 -140 -1
-5 -2 -12 0 -15 9 -24 8 -50 -1 -44 -8 4 -8 1 -2 -12 5 -11 10 -48 12 -84 l2
-65 -20 30 c-41 60 -55 223 -26 306 12 34 13 44 3 51 -9 6 -6 7 8 3 13 -3 26
1 34 10 17 21 27 19 33 -7z m27 18 c0 -3 -4 -8 -10 -11 -5 -3 -10 -1 -10 4 0
6 5 11 10 11 6 0 10 -2 10 -4z m-170 -27 c0 -4 -18 -9 -40 -11 -36 -3 -55 5
-30 14 19 6 70 4 70 -3z m-614 -47 c-3 -5 6 -15 20 -23 17 -8 24 -19 21 -31
-3 -10 0 -18 6 -18 15 -1 -44 -50 -59 -50 -18 0 -36 28 -36 56 0 33 21 74 39
74 8 0 12 -4 9 -8z m-5078 -19 c-10 -2 -18 -11 -18 -19 0 -8 -5 -14 -10 -14
-7 0 -7 6 0 20 6 11 18 19 28 19 16 -1 16 -2 0 -6z m5084 -201 c2 6 15 -1 29
-16 14 -14 35 -28 47 -31 30 -5 43 -15 37 -25 -6 -10 19 -20 55 -20 15 0 30
-6 33 -13 3 -7 32 -24 65 -37 53 -21 58 -26 44 -37 -16 -11 -16 -12 1 -13 18
0 25 -40 7 -40 -15 0 -12 -17 3 -17 38 -3 67 -8 67 -12 0 -3 -14 -20 -32 -38
l-32 -33 30 0 c17 0 35 5 42 12 6 6 15 8 19 4 8 -8 -19 -28 -51 -36 -29 -8
-45 -38 -26 -50 12 -8 11 -10 -7 -10 -14 0 -23 6 -23 15 0 9 -10 15 -22 16
-13 0 -17 3 -10 6 23 9 12 24 -15 21 -36 -4 -46 -52 -14 -63 12 -3 26 -3 33 1
7 4 4 -2 -6 -14 -19 -22 -53 -31 -41 -12 11 18 -11 10 -30 -10 -11 -12 -13
-20 -6 -20 7 0 9 -4 6 -10 -3 -5 -17 -10 -31 -10 -18 0 -24 6 -25 23 -1 21 -1
21 -9 -3 -7 -21 -8 -22 -10 -5 -1 11 -4 14 -7 8 -8 -22 -23 -14 -23 11 0 27
-38 155 -50 171 -4 6 -18 41 -29 80 -27 85 -77 178 -148 269 -82 107 -65 114
36 15 49 -49 91 -83 93 -77z m413 154 c7 3 16 0 21 -7 9 -15 24 -92 16 -84 -3
2 -10 1 -16 -4 -19 -15 -54 6 -61 38 -6 29 14 89 22 64 3 -7 10 -10 18 -7z
m-7205 -41 c7 -9 8 -15 2 -15 -5 0 -12 7 -16 15 -3 8 -4 15 -2 15 2 0 9 -7 16
-15z m39 -65 c0 -10 -3 -8 -9 5 -5 12 -9 14 -9 6 -1 -8 -3 -12 -6 -9 -3 3 -2
13 1 22 5 14 9 15 15 4 5 -7 8 -20 8 -28z m21 -72 c0 -6 -6 -5 -15 2 -8 7 -15
14 -15 16 0 2 7 1 15 -2 8 -4 15 -11 15 -16z m8157 8 c6 -6 -44 -14 -90 -15
-20 0 -47 -6 -59 -12 -12 -7 -60 -11 -114 -10 -83 2 -94 0 -119 -21 -18 -16
-28 -35 -30 -62 -5 -53 -15 -58 -15 -7 0 80 24 98 143 106 40 3 90 12 112 20
37 14 159 15 172 1z m-1923 -227 c43 -44 41 -125 -2 -86 -11 10 -35 17 -58 17
-21 0 -49 3 -62 7 -23 5 -21 8 30 60 48 49 54 52 65 36 7 -10 19 -25 27 -34z
m593 -281 c-3 -7 -5 -2 -5 12 0 14 2 19 5 13 2 -7 2 -19 0 -25z m-1103 13 c4
-5 0 -12 -6 -14 -8 -3 -5 -6 6 -6 10 -1 26 -9 35 -19 9 -10 34 -25 56 -34 l40
-16 -29 -8 c-62 -15 -406 15 -406 36 0 20 42 36 139 51 127 20 158 22 165 10z
m-4102 -166 c0 -5 -5 -11 -11 -13 -6 -2 -11 4 -11 13 0 9 5 15 11 13 6 -2 11
-8 11 -13z m3998 -85 c0 -5 -4 -10 -10 -10 -5 0 -10 5 -10 10 0 6 5 10 10 10
6 0 10 -4 10 -10z"/>
<path d="M4615 7550 c3 -5 8 -10 11 -10 2 0 4 5 4 10 0 6 -5 10 -11 10 -5 0
-7 -4 -4 -10z"/>
<path d="M4823 7453 c9 -2 23 -2 30 0 6 3 -1 5 -18 5 -16 0 -22 -2 -12 -5z"/>
<path d="M5298 7433 c6 -2 18 -2 25 0 6 3 1 5 -13 5 -14 0 -19 -2 -12 -5z"/>
<path d="M5250 7422 c0 -5 7 -15 15 -22 8 -7 15 -8 15 -2 0 5 -7 15 -15 22 -8
7 -15 8 -15 2z"/>
<path d="M8210 7110 c-9 -6 -10 -10 -3 -10 6 0 15 5 18 10 8 12 4 12 -15 0z"/>
<path d="M8190 6970 c-13 -8 -12 -10 3 -10 9 0 17 5 17 10 0 12 -1 12 -20 0z"/>
<path d="M8033 6783 c9 -2 23 -2 30 0 6 3 -1 5 -18 5 -16 0 -22 -2 -12 -5z"/>
<path d="M8105 6760 c-3 -5 -1 -10 4 -10 6 0 11 5 11 10 0 6 -2 10 -4 10 -3 0
-8 -4 -11 -10z"/>
<path d="M8116 6725 c-3 -8 -2 -15 3 -15 5 0 14 7 21 15 10 12 10 15 -3 15 -8
0 -17 -7 -21 -15z"/>
<path d="M8038 6713 c7 -3 16 -2 19 1 4 3 -2 6 -13 5 -11 0 -14 -3 -6 -6z"/>
<path d="M7994 6693 c11 -11 48 -14 41 -3 -3 5 -16 10 -27 10 -12 0 -18 -3
-14 -7z"/>
<path d="M3612 6659 c2 -6 8 -10 13 -10 5 0 11 4 13 10 2 6 -4 11 -13 11 -9 0
-15 -5 -13 -11z"/>
<path d="M3655 6620 c10 -11 20 -18 23 -15 7 6 -18 35 -31 35 -5 0 -2 -9 8
-20z"/>
<path d="M6950 6600 c-12 -7 -10 -9 7 -7 12 0 19 5 17 9 -6 10 -6 10 -24 -2z"/>
<path d="M6708 6553 c7 -3 16 -2 19 1 4 3 -2 6 -13 5 -11 0 -14 -3 -6 -6z"/>
<path d="M5250 6490 c0 -5 5 -10 11 -10 5 0 7 5 4 10 -3 6 -8 10 -11 10 -2 0
-4 -4 -4 -10z"/>
<path d="M6482 6493 c-6 -2 -10 -9 -7 -13 7 -11 35 -2 35 11 0 10 -8 10 -28 2z"/>
<path d="M5218 6473 c7 -3 16 -2 19 1 4 3 -2 6 -13 5 -11 0 -14 -3 -6 -6z"/>
<path d="M5187 6433 c10 -3 10 -10 2 -25 -9 -17 -9 -19 7 -10 25 14 26 38 0
39 -11 1 -15 -1 -9 -4z"/>
<path d="M5088 6323 c7 -3 16 -2 19 1 4 3 -2 6 -13 5 -11 0 -14 -3 -6 -6z"/>
<path d="M9283 6505 c0 -18 -3 -18 38 0 l34 14 -36 1 c-25 0 -36 -4 -36 -15z"/>
<path d="M9209 6401 c7 -5 10 -14 7 -20 -4 -6 -3 -11 2 -11 5 0 12 9 15 20 4
15 0 20 -16 20 -17 0 -19 -2 -8 -9z"/>
<path d="M9090 6100 c0 -5 5 -10 10 -10 6 0 10 5 10 10 0 6 -4 10 -10 10 -5 0
-10 -4 -10 -10z"/>
<path d="M9090 6030 c0 -5 5 -10 10 -10 6 0 10 5 10 10 0 6 -4 10 -10 10 -5 0
-10 -4 -10 -10z"/>
<path d="M9070 5918 c0 -4 7 -8 15 -8 8 0 15 4 15 8 0 5 -7 9 -15 9 -8 0 -15
-4 -15 -9z"/>
<path d="M9088 5863 c7 -3 16 -2 19 1 4 3 -2 6 -13 5 -11 0 -14 -3 -6 -6z"/>
<path d="M9038 5753 c7 -3 16 -2 19 1 4 3 -2 6 -13 5 -11 0 -14 -3 -6 -6z"/>
<path d="M9021 5614 c0 -11 3 -14 6 -6 3 7 2 16 -1 19 -3 4 -6 -2 -5 -13z"/>
<path d="M9000 5496 c0 -8 4 -17 9 -20 15 -10 40 5 34 20 -7 18 -43 18 -43 0z"/>
<path d="M8885 4839 c4 -5 1 -17 -7 -26 -12 -15 -11 -15 10 -2 26 16 28 25 6
33 -9 3 -12 2 -9 -5z"/>
<path d="M3635 4829 c-17 -4 -45 -23 -63 -42 -32 -33 -71 -123 -67 -155 5 -40
18 -82 26 -82 5 0 9 -6 9 -12 0 -12 79 -77 83 -70 1 2 14 -3 30 -11 33 -17 99
-13 153 9 43 17 97 70 102 100 8 48 8 119 1 124 -4 3 -9 12 -11 20 -6 27 -73
89 -119 109 -46 22 -94 25 -144 10z"/>
<path d="M6316 4541 c-4 -5 -2 -12 3 -15 5 -4 12 -2 15 3 4 5 2 12 -3 15 -5 4
-12 2 -15 -3z"/>
<path d="M2932 4491 c-8 -4 -24 -6 -38 -3 -13 2 -24 0 -24 -5 0 -11 67 -9 78
1 9 10 -3 15 -16 7z"/>
<path d="M2847 4473 c-4 -3 -7 -11 -7 -17 0 -6 5 -5 12 2 6 6 9 14 7 17 -3 3
-9 2 -12 -2z"/>
<path d="M2920 4440 c-8 -5 -10 -10 -5 -10 6 0 17 5 25 10 8 5 11 10 5 10 -5
0 -17 -5 -25 -10z"/>
<path d="M2859 4409 l-24 -20 30 17 c39 24 40 24 28 24 -6 0 -21 -9 -34 -21z"/>
<path d="M6584 4400 c-28 -11 -35 -32 -18 -55 12 -17 14 -17 14 -2 0 9 4 17 9
17 4 0 8 -17 7 -37 -1 -32 3 -39 21 -41 15 -2 27 5 39 24 16 23 16 29 3 52
-20 35 -50 52 -75 42z"/>
<path d="M6380 4306 c0 -8 4 -17 9 -20 5 -4 7 3 4 14 -6 23 -13 26 -13 6z"/>
<path d="M6488 4173 c6 -2 10 -9 6 -14 -3 -5 0 -9 5 -9 6 0 11 7 11 15 0 8 -8
15 -17 14 -11 0 -13 -3 -5 -6z"/>
<path d="M5016 4008 c-43 -10 -94 -27 -111 -38 -52 -32 -113 -105 -125 -149
-12 -46 -12 -849 1 -911 6 -34 14 -18 11 23 -1 9 3 17 9 17 7 0 7 6 -2 17 -12
14 -12 16 0 8 11 -6 13 -2 9 19 -4 18 -1 29 8 33 8 3 11 9 8 14 -3 5 2 9 12 9
13 0 11 4 -7 21 l-24 20 25 -6 c24 -6 24 -5 6 9 -19 16 -19 16 4 16 22 0 22 1
6 19 -10 11 -15 25 -11 31 4 7 2 30 -5 51 -11 32 -11 42 -1 52 10 9 12 8 9 -7
-1 -10 3 -21 10 -23 17 -7 15 42 -3 61 -25 25 -18 36 16 26 17 -5 37 -14 45
-21 10 -8 14 -8 14 0 0 6 -4 11 -9 11 -5 0 -9 6 -8 13 1 35 -4 58 -12 53 -11
-7 -24 24 -15 33 4 3 9 0 11 -6 3 -7 12 -13 20 -13 12 0 13 3 3 14 -17 21 -9
62 11 58 9 -1 19 5 23 13 3 9 11 13 17 9 7 -4 9 -3 5 4 -3 6 -1 16 6 23 12 11
13 84 2 118 -4 11 -7 11 -21 0 -14 -12 -16 -12 -11 1 3 8 16 15 31 15 14 0 29
4 34 9 4 5 3 6 -4 2 -8 -4 -13 -2 -13 6 0 10 15 12 57 10 39 -2 53 0 44 7 -8
5 -20 7 -28 4 -8 -3 -13 2 -13 16 0 16 6 21 25 21 14 0 25 -5 25 -11 0 -13 30
-38 45 -38 6 0 1 6 -9 14 -26 20 -18 24 23 13 26 -7 31 -12 20 -19 -8 -5 -9
-9 -3 -9 5 0 16 6 23 13 10 10 12 9 9 -3 -2 -10 5 -15 22 -16 14 -1 30 -2 35
-4 6 -1 25 -1 44 0 22 1 31 -2 27 -9 -4 -6 -19 -11 -34 -12 -15 0 -21 -3 -12
-6 8 -3 27 -17 42 -31 15 -14 31 -23 34 -19 3 3 6 55 5 114 -1 86 -6 117 -22
150 -25 52 -98 118 -147 134 -21 6 -41 17 -47 23 -17 22 -57 23 -139 4z m31
-60 c-3 -8 -6 -5 -6 6 -1 11 2 17 5 13 3 -3 4 -12 1 -19z m82 6 c6 4 11 0 11
-9 0 -12 -5 -15 -16 -11 -9 3 -20 6 -25 6 -4 0 -6 7 -2 16 4 11 8 12 13 4 4
-7 13 -9 19 -6z m66 -14 c3 -6 -1 -7 -9 -4 -18 7 -21 14 -7 14 6 0 13 -4 16
-10z m-25 -40 c0 -5 -7 -7 -15 -4 -8 4 -15 8 -15 10 0 2 7 4 15 4 8 0 15 -4
15 -10z m74 -76 c3 -8 2 -12 -4 -9 -6 3 -10 10 -10 16 0 14 7 11 14 -7z m-164
-64 c-8 -5 -19 -10 -25 -10 -5 0 -3 5 5 10 8 5 20 10 25 10 6 0 3 -5 -5 -10z
m48 -17 c0 -27 -1 -26 -16 3 -8 16 -8 21 2 21 8 0 14 -11 14 -24z m79 -35 c-3
-8 -6 -5 -6 6 -1 11 2 17 5 13 3 -3 4 -12 1 -19z m126 5 c-7 -2 -19 -2 -25 0
-7 3 -2 5 12 5 14 0 19 -2 13 -5z m-83 -18 c0 -8 -7 -15 -15 -15 -9 0 -12 6
-9 15 4 8 10 15 15 15 5 0 9 -7 9 -15z m-215 -5 c-3 -5 -10 -10 -16 -10 -5 0
-9 5 -9 10 0 6 7 10 16 10 8 0 12 -4 9 -10z m295 -4 c0 -3 -4 -8 -10 -11 -5
-3 -10 -1 -10 4 0 6 5 11 10 11 6 0 10 -2 10 -4z m-363 -12 c-3 -3 -12 -4 -19
-1 -8 3 -5 6 6 6 11 1 17 -2 13 -5z m0 -109 c-2 -31 -6 -58 -9 -60 -8 -9 -58
14 -58 26 0 7 11 8 32 3 29 -6 31 -5 20 9 -10 12 -10 16 0 20 10 4 10 8 -2 16
-10 7 -11 11 -2 11 6 0 11 3 11 8 -2 12 1 22 7 22 3 0 3 -25 1 -55z m-42 35
c3 -5 1 -10 -4 -10 -6 0 -11 5 -11 10 0 6 2 10 4 10 3 0 8 -4 11 -10z m5 -30
c0 -5 -5 -10 -11 -10 -5 0 -7 5 -4 10 3 6 8 10 11 10 2 0 4 -4 4 -10z m10 -80
c0 -5 -7 -10 -15 -10 -8 0 -15 5 -15 10 0 6 7 10 15 10 8 0 15 -4 15 -10z
m-115 -130 c3 -5 1 -10 -4 -10 -6 0 -11 5 -11 10 0 6 2 10 4 10 3 0 8 -4 11
-10z"/>
<path d="M5210 4019 c0 -5 5 -7 10 -4 6 3 10 2 10 -4 0 -5 16 -15 34 -21 37
-12 102 -81 123 -132 11 -26 20 -110 27 -265 1 -23 8 -48 14 -56 7 -7 9 -17 5
-20 -3 -4 -1 -7 5 -7 7 0 12 -4 12 -10 0 -5 -8 -10 -17 -10 -16 -1 -15 -2 2
-12 11 -6 23 -16 27 -22 4 -6 10 -7 15 -3 4 5 1 12 -7 18 -13 8 -13 10 0 19 8
5 20 10 25 10 6 0 3 -5 -5 -10 -13 -8 -13 -11 -1 -19 7 -5 10 -14 7 -20 -10
-16 -2 -14 39 9 33 19 35 19 26 2 -9 -16 -6 -18 19 -14 16 2 30 11 32 21 2 9
3 95 2 191 -1 161 -3 182 -27 256 l-27 81 -93 16 c-106 19 -257 23 -257 6z
m73 -6 c-7 -2 -19 -2 -25 0 -7 3 -2 5 12 5 14 0 19 -2 13 -5z m247 -533 c0 -5
-5 -10 -11 -10 -5 0 -7 5 -4 10 3 6 8 10 11 10 2 0 4 -4 4 -10z"/>
<path d="M6541 3973 c-1 -13 -5 -23 -10 -23 -11 0 -41 -56 -41 -76 0 -26 39
-1 46 30 3 17 10 36 14 41 4 6 4 19 -1 30 -7 19 -8 19 -8 -2z"/>
<path d="M6471 3924 c0 -11 3 -14 6 -6 3 7 2 16 -1 19 -3 4 -6 -2 -5 -13z"/>
<path d="M6826 3885 c-3 -9 -6 -22 -5 -28 0 -7 5 -1 10 12 5 13 8 26 5 28 -2
2 -6 -3 -10 -12z"/>
<path d="M6458 3863 c-2 -10 -1 -29 3 -43 6 -20 7 -21 8 -5 1 11 4 30 7 43 4
12 2 22 -4 22 -5 0 -12 -8 -14 -17z"/>
<path d="M6743 3861 c-9 -7 -15 -28 -16 -51 0 -8 -6 -21 -14 -28 -9 -10 -10
-19 -2 -33 10 -20 34 -16 26 5 -2 6 -1 20 4 31 7 18 8 18 8 -5 l1 -25 15 29
c28 53 13 103 -22 77z"/>
<path d="M6636 3775 c-9 -26 -7 -32 5 -12 6 10 9 21 6 23 -2 3 -7 -2 -11 -11z"/>
<path d="M6477 3774 c-9 -10 4 -34 19 -34 16 0 16 2 8 24 -6 17 -16 20 -27 10z"/>
<path d="M6388 3736 c-26 -13 -44 -27 -40 -31 4 -5 2 -5 -4 -2 -14 8 -132 -42
-304 -128 -74 -38 -187 -85 -250 -105 -83 -27 -116 -42 -118 -55 -3 -10 0 -15
7 -11 7 5 9 1 5 -8 -4 -10 -1 -16 7 -16 11 0 11 -2 1 -8 -14 -9 -25 -159 -12
-167 4 -3 4 -24 0 -47 -9 -52 -6 -190 4 -206 4 -7 4 -17 0 -24 -20 -33 62 42
146 132 52 56 149 159 216 229 165 172 256 288 248 314 -4 11 -2 17 4 14 5 -4
21 7 35 23 15 17 41 32 62 36 19 3 35 9 35 13 0 4 14 6 30 3 37 -5 40 15 7 46
-27 26 -20 26 -79 -2z"/>
<path d="M6900 3695 c0 -8 4 -15 10 -15 5 0 7 7 4 15 -4 8 -8 15 -10 15 -2 0
-4 -7 -4 -15z"/>
<path d="M5235 3640 c-3 -6 1 -7 9 -4 18 7 21 14 7 14 -6 0 -13 -4 -16 -10z"/>
<path d="M5580 3411 c0 -5 -10 -7 -22 -3 -20 5 -21 4 -9 -11 11 -14 11 -18 -4
-23 -10 -4 -21 -1 -27 7 -6 9 -11 10 -14 3 -2 -6 -19 -8 -36 -6 -22 3 -29 1
-24 -7 4 -7 16 -9 25 -6 20 6 48 -36 36 -55 -10 -16 15 -30 41 -24 12 3 25 1
28 -5 5 -7 -4 -11 -22 -11 -26 0 -29 -3 -24 -22 3 -14 1 -19 -6 -14 -7 4 -20
2 -29 -3 -16 -9 -15 -10 5 -11 16 0 21 -4 16 -12 -10 -16 25 9 44 31 6 8 12
10 12 4 0 -5 -16 -26 -35 -46 -36 -37 -36 -40 0 -38 19 2 19 1 3 -12 -21 -17
-24 -31 -5 -24 8 3 20 1 28 -5 11 -8 11 -9 -3 -4 -10 3 -20 1 -23 -4 -4 -6 4
-11 17 -11 17 -1 18 -3 6 -6 -18 -4 -25 -23 -10 -23 5 0 8 -12 7 -27 -1 -16 4
-37 11 -48 7 -11 12 -34 12 -52 -1 -18 5 -39 11 -47 7 -8 10 -21 6 -28 -4 -7
0 -5 8 5 12 14 14 46 12 150 -1 73 -3 192 -3 265 -2 110 -4 132 -17 132 -8 0
-15 -4 -15 -9z m17 -27 c-3 -3 -12 -4 -19 -1 -8 3 -5 6 6 6 11 1 17 -2 13 -5z
m-57 -69 c-7 -9 -15 -13 -17 -11 -6 6 20 36 26 30 2 -2 -2 -10 -9 -19z"/>
<path d="M6725 3380 c3 -19 6 -39 8 -45 2 -5 7 -27 12 -47 4 -21 11 -38 16
-38 5 0 9 -7 9 -15 0 -8 4 -15 9 -15 5 0 7 9 4 20 -3 11 -9 20 -15 20 -5 0 -3
10 3 22 9 16 9 23 1 26 -6 2 -14 19 -18 38 -3 19 -10 34 -14 34 -5 0 -11 8
-14 18 -3 9 -3 1 -1 -18z"/>
<path d="M5476 3315 c-3 -8 -1 -15 4 -15 6 0 10 7 10 15 0 8 -2 15 -4 15 -2 0
-6 -7 -10 -15z"/>
<path d="M5463 3273 c9 -2 17 -9 17 -14 0 -5 7 -9 15 -9 23 0 18 17 -7 24 -13
3 -27 5 -33 5 -5 -1 -2 -3 8 -6z"/>
<path d="M6681 3224 c0 -11 3 -14 6 -6 3 7 2 16 -1 19 -3 4 -6 -2 -5 -13z"/>
<path d="M6680 3191 c0 -5 5 -13 10 -16 6 -3 10 -2 10 4 0 5 -4 13 -10 16 -5
3 -10 2 -10 -4z"/>
<path d="M6695 3150 c-3 -5 -1 -10 4 -10 6 0 11 5 11 10 0 6 -2 10 -4 10 -3 0
-8 -4 -11 -10z"/>
<path d="M6770 3080 c0 -6 -6 -10 -12 -9 -29 3 -68 -2 -68 -9 0 -4 20 -8 45
-8 37 0 45 4 45 18 0 10 -2 18 -5 18 -3 0 -5 -5 -5 -10z"/>
<path d="M6831 3014 c0 -11 3 -14 6 -6 3 7 2 16 -1 19 -3 4 -6 -2 -5 -13z"/>
<path d="M4392 2266 l4 -39 -90 6 c-52 3 -78 2 -61 -3 17 -4 53 -8 80 -9 36
-1 46 -4 35 -11 -10 -7 15 -10 80 -10 106 0 132 -9 110 -35 -22 -27 3 -38 92
-42 115 -6 130 -10 123 -32 -9 -29 26 -31 76 -5 52 28 48 28 160 8 78 -14 90
-20 95 -39 6 -24 37 -35 96 -35 45 0 68 17 68 50 0 22 -8 33 -36 51 -33 20
-40 21 -68 10 -60 -24 -70 -26 -63 -8 10 27 -18 45 -74 45 -56 1 -72 8 -49 22
8 5 12 11 9 14 -3 3 -25 -8 -49 -25 -92 -62 -94 -62 -129 -29 -17 17 -31 34
-31 39 0 8 -23 21 -36 21 -2 0 -4 -9 -4 -20 0 -22 -38 -28 -56 -10 -6 6 -30
16 -54 23 -24 7 -45 17 -47 23 -4 12 28 24 67 24 19 0 21 3 12 12 -8 8 -51 13
-128 13 -90 0 -117 3 -125 15 -8 11 -9 5 -7 -24z"/>
<path d="M5090 2290 c-25 -4 -51 -5 -59 -2 -9 3 -12 1 -7 -6 4 -6 3 -20 -3
-29 -9 -19 3 -20 226 -23 39 0 115 -59 77 -60 -27 0 -57 -33 -52 -57 3 -16 13
-18 88 -15 59 2 98 -1 129 -12 48 -18 116 -22 91 -6 -21 13 -10 19 59 31 52
10 62 15 67 35 6 22 11 24 78 25 39 1 82 5 96 9 l25 8 -28 1 c-56 2 -15 19 63
25 81 7 121 26 56 26 -20 0 -36 5 -36 11 0 11 -86 6 -97 -5 -4 -3 -12 -1 -19
5 -19 16 -117 21 -204 12 l-75 -8 63 -24 c73 -27 86 -41 40 -39 -42 1 -118
-20 -118 -32 0 -21 -49 -21 -89 -1 -22 12 -41 19 -41 15 0 -3 -7 2 -16 10 -8
9 -23 16 -33 16 -9 0 -26 7 -37 15 -10 8 -26 15 -34 15 -9 0 -33 9 -55 20 -22
11 -44 20 -51 20 -6 0 -17 7 -24 15 -13 16 -13 16 -80 5z"/>
<path d="M3200 4226 c-6 -9 -10 -21 -8 -28 3 -8 9 -4 17 10 15 28 9 39 -9 18z"/>
<path d="M2960 4175 c0 -14 8 -29 19 -35 26 -14 29 -13 26 8 -5 50 -45 75 -45
27z"/>
<path d="M3118 4172 c2 -17 0 -45 -6 -61 -8 -24 -7 -31 5 -35 22 -9 -2 -36
-28 -31 -16 3 -19 -2 -19 -35 0 -49 22 -65 63 -44 26 14 34 35 12 36 -6 0 -19
5 -30 11 -19 10 -19 10 -1 17 11 3 20 13 22 21 5 31 9 44 17 50 11 8 0 49 -22
78 l-18 23 5 -30z"/>
<path d="M2884 4169 c-11 -18 85 -89 121 -89 13 0 5 8 -23 21 -23 12 -47 30
-53 41 -6 12 -17 17 -26 14 -11 -4 -13 -2 -9 9 6 18 0 20 -10 4z"/>
<path d="M3020 4176 c0 -2 7 -9 15 -16 12 -10 15 -10 15 4 0 9 -7 16 -15 16
-8 0 -15 -2 -15 -4z"/>
<path d="M2944 3484 c-45 -16 -98 -68 -129 -126 -11 -21 -23 -38 -27 -38 -5 0
-8 -20 -8 -44 0 -55 30 -100 94 -143 94 -64 206 -71 274 -16 140 113 107 318
-60 368 -62 18 -90 18 -144 -1z"/>
<path d="M2552 3220 c0 -14 2 -19 5 -12 2 6 2 18 0 25 -3 6 -5 1 -5 -13z"/>
<path d="M8050 4166 c0 -12 68 -36 84 -30 27 10 18 21 -16 20 -18 0 -41 4 -50
8 -10 5 -18 5 -18 2z"/>
<path d="M8065 4120 c3 -5 8 -10 11 -10 2 0 4 5 4 10 0 6 -5 10 -11 10 -5 0
-7 -4 -4 -10z"/>
<path d="M7985 4089 c-10 -15 3 -25 16 -12 7 7 7 13 1 17 -6 3 -14 1 -17 -5z"/>
<path d="M8110 3845 c10 -12 9 -23 -4 -55 l-16 -40 27 -6 c53 -14 77 29 48 85
-11 23 -23 31 -41 31 -22 0 -24 -2 -14 -15z"/>
<path d="M8052 3827 c-25 -27 -28 -37 -9 -37 13 0 42 48 34 56 -2 2 -13 -6
-25 -19z"/>
<path d="M7935 3792 c-8 -38 -1 -52 13 -25 5 10 6 27 2 38 -6 17 -8 15 -15
-13z"/>
<path d="M7998 3752 c-13 -15 -27 -34 -30 -42 -6 -16 16 -43 26 -32 4 3 4 -2
0 -13 -4 -11 -4 -17 0 -13 4 3 16 -2 27 -13 21 -21 59 -25 77 -7 23 23 12 98
-15 98 -7 0 -24 11 -37 25 l-23 25 -25 -28z"/>
<path d="M9520 3523 c0 -4 5 -15 10 -23 8 -13 10 -13 10 2 0 9 -4 20 -10 23
-5 3 -10 3 -10 -2z"/>
<path d="M9569 3458 c-12 -23 -12 -23 10 -4 23 21 26 26 11 26 -5 0 -15 -10
-21 -22z"/>
<path d="M7991 3184 c0 -11 3 -14 6 -6 3 7 2 16 -1 19 -3 4 -6 -2 -5 -13z"/>
<path d="M7983 3152 l-23 -7 20 -30 c21 -31 27 -28 10 6 -8 15 -7 19 5 19 8 0
15 5 15 10 0 6 -1 10 -2 9 -2 -1 -13 -4 -25 -7z"/>
<path d="M8143 3025 c0 -8 4 -12 9 -9 5 3 6 10 3 15 -9 13 -12 11 -12 -6z"/>
<path d="M8115 3020 c-3 -5 -1 -10 4 -10 6 0 11 5 11 10 0 6 -2 10 -4 10 -3 0
-8 -4 -11 -10z"/>
<path d="M8120 2984 c-11 -12 -11 -15 1 -12 8 2 13 -2 12 -8 -1 -6 5 -11 13
-11 12 0 12 3 -1 17 -8 9 -12 20 -8 23 3 4 4 7 1 7 -3 0 -11 -7 -18 -16z"/>
<path d="M2500 2173 c0 -21 3 -24 9 -14 5 8 7 20 4 28 -8 21 -13 15 -13 -14z"/>
<path d="M2370 2046 c-95 -37 -101 -40 -98 -61 3 -17 12 -20 64 -23 100 -5
135 21 104 79 -12 22 -23 23 -70 5z"/>
<path d="M3365 2870 c-3 -5 -1 -10 4 -10 6 0 11 5 11 10 0 6 -2 10 -4 10 -3 0
-8 -4 -11 -10z"/>
<path d="M3470 2766 c0 -2 7 -6 15 -10 8 -3 15 -1 15 4 0 6 -7 10 -15 10 -8 0
-15 -2 -15 -4z"/>
<path d="M2990 2812 c0 -7 -7 -9 -17 -5 -16 6 -16 5 -4 -11 13 -16 15 -16 24
-1 5 9 6 19 3 22 -3 4 -6 1 -6 -5z"/>
<path d="M8990 2865 c-6 -8 -9 -18 -6 -24 3 -5 0 -11 -6 -14 -7 -2 -9 -8 -5
-13 9 -10 30 21 32 49 2 21 1 21 -15 2z"/>
<path d="M6991 2644 c0 -11 3 -14 6 -6 3 7 2 16 -1 19 -3 4 -6 -2 -5 -13z"/>
<path d="M141 4684 c0 -11 3 -14 6 -6 3 7 2 16 -1 19 -3 4 -6 -2 -5 -13z"/>
<path d="M300 4120 c0 -5 4 -10 9 -10 6 0 13 5 16 10 3 6 -1 10 -9 10 -9 0
-16 -4 -16 -10z"/>
</g>
</svg>
